<?xml version="1.0" encoding="utf-8"?>
<!-- Generator: Adobe Illustrator 22.0.1, SVG Export Plug-In . SVG Version: 6.00 Build 0)  -->
<svg version="1.1" xmlns="http://www.w3.org/2000/svg" xmlns:xlink="http://www.w3.org/1999/xlink" x="0px" y="0px"
	 viewBox="0 0 40.7 36.6" style="enable-background:new 0 0 40.7 36.6;" xml:space="preserve">
<style type="text/css">

	.st0{display:none;}
	.st1{display:inline;fill:#BDD600;}
	.st2{display:inline;}
	.st3{fill:none;stroke:#FFFFFF;stroke-width:0.5;stroke-linecap:round;stroke-miterlimit:10;}
	.st4{fill:none;stroke:#FFFFFF;stroke-width:0.5;stroke-miterlimit:10;}
	.st5{fill:none;stroke:#BDD600;stroke-width:0.5;stroke-linecap:round;stroke-miterlimit:10;stroke-dasharray:2;}
	.st6{fill:none;stroke:#FFFFFF;stroke-width:0.5;stroke-linecap:round;stroke-miterlimit:10;stroke-dasharray:2;}
	.st7{display:inline;opacity:0.68;}
	.st8{opacity:0.63;fill:#FFFFFF;}
	.st9{fill:#FFFFFF;}
	.st10{fill:#BDD600;stroke:#FFFFFF;stroke-width:0.5;stroke-miterlimit:10;}
	.st11{display:inline;fill:#BDD600;stroke:#FFFFFF;stroke-width:0.5;stroke-miterlimit:10;}
	.st12{display:inline;fill:#BDD600;stroke:#FFFFFF;stroke-width:0.25;stroke-miterlimit:10;}
	.st13{display:inline;fill:none;stroke:#FFFFFF;stroke-width:0.25;stroke-miterlimit:10;}
	.st14{display:inline;fill:none;stroke:#FFFFFF;stroke-width:0.75;stroke-miterlimit:10;}
	.st15{display:inline;opacity:0.4;fill:#FFFFFF;}
	.st16{display:inline;opacity:0.63;fill:none;stroke:#FFFFFF;stroke-width:0.5;stroke-miterlimit:10;}
	.st17{display:inline;fill:none;stroke:#FFFFFF;stroke-width:0.5;stroke-miterlimit:10;}
	.st18{display:none;opacity:0.52;fill:#FFFFFF;}
	.st19{fill:none;stroke:#FFFFFF;stroke-width:0.25;stroke-miterlimit:10;}
	.st20{display:none;opacity:0.47;fill:#FFFFFF;}
	.st21{fill:none;stroke:#BDD600;stroke-width:0.25;stroke-linecap:round;stroke-miterlimit:10;}
	.st22{fill:none;stroke:#FFFFFF;stroke-width:0.25;stroke-linecap:round;stroke-miterlimit:10;}
	.st23{fill:#FFFFFF;stroke:#FFFFFF;stroke-width:0.25;stroke-linecap:round;stroke-miterlimit:10;}
	.st24{fill:#BDD600;stroke:#FFFFFF;stroke-width:0.25;stroke-miterlimit:10;}
	.st25{fill:#BDD600;}
	.st26{fill:none;stroke:#FFFFFF;stroke-width:0.75;stroke-miterlimit:10;}
	.st27{fill:#FFFFFF;stroke:#FFFFFF;stroke-width:0.25;stroke-miterlimit:10;}
	.st28{fill:#F6F6F6;}
	.st29{font-family:'MyriadPro-Regular';}
	.st30{font-size:1.1206px;}
	.st31{font-family:'SegoeUISymbol';}
	.st32{font-size:9.1994px;}
</style>
<linearGradient id="SVGID_1_" gradientUnits="userSpaceOnUse" x1="-2.0649" y1="-3.3218" x2="-1.3577" y2="-2.6147">
	<stop  offset="0" style="stop-color:#E6E6EB"/>
	<stop  offset="0.1754" style="stop-color:#E2E2E7"/>
	<stop  offset="0.3552" style="stop-color:#D6D6DB"/>
	<stop  offset="0.5371" style="stop-color:#C2C3C6"/>
	<stop  offset="0.7204" style="stop-color:#A5A7A9"/>
	<stop  offset="0.9031" style="stop-color:#818485"/>
	<stop  offset="1" style="stop-color:#6B6E6E"/>
</linearGradient>
<g id="Слой_1" class="st0">
	<g id="лаборатория">
		<circle class="st1" cx="17.9" cy="18.7" r="17.9"/>
		<g class="st2">
			<path class="st3" d="M25.5,14.2c0,0-1.2,2.1-1.2,3.3c0,1.2,8.5,11.3,5.7,11.7S22,29.5,22,29.5h1c0,0-5.3,0-8.1-0.3
				s5.7-10.4,5.7-11.7c0-1.2-1.2-3.3-1.2-3.3"/>
			<ellipse class="st4" cx="22.5" cy="13.7" rx="3.3" ry="1.2"/>
		</g>
		<g class="st2">
			<circle class="st5" cx="22.6" cy="18.1" r="17.9"/>
			<path class="st6" d="M19.5,35.7c-8.4-1.5-14.7-8.8-14.7-17.6c0-8,5.2-14.7,12.4-17"/>
		</g>
		<g class="st7">
			<path class="st8" d="M18,21.8c-2.2,3.2-4.7,7.1-3,7.3c2.8,0.4,8.1,0.3,8.1,0.3h-1c0,0,5.3,0,8.1-0.3c1.7-0.2-0.8-4.1-3-7.3
				c0,0-2.9,0.8-5.1,0.3C19.7,21.6,18,21.8,18,21.8z"/>
			<path class="st9" d="M19.2,13.7"/>
			<path class="st9" d="M25.7,13.7"/>
		</g>
		<g class="st2">
			<path class="st10" d="M17.9,7.4v19.7c0,0,0.2,2.5-2.1,2.5s-2.1-2.5-2.1-2.5V7.4"/>
			<ellipse class="st10" cx="15.7" cy="7.4" rx="2.2" ry="1.1"/>
		</g>
		<path class="st11" d="M13.6,17.3c0,0,0.5-1.1,1.8,0s2.5-0.5,2.5-0.5"/>
		<circle class="st12" cx="22.6" cy="11.2" r="0.5"/>
		<circle class="st13" cx="22" cy="20.1" r="0.9"/>
		<circle class="st12" cx="23.3" cy="12.5" r="1.3"/>
		<circle class="st12" cx="24.1" cy="10.2" r="0.5"/>
		<circle class="st12" cx="22" cy="13.4" r="0.6"/>
		<circle class="st12" cx="23" cy="18.4" r="0.3"/>
		<circle class="st12" cx="22" cy="16.6" r="0.6"/>
		<circle class="st12" cx="24.1" cy="21.1" r="0.5"/>
	</g>
	<g id="урожайность">
		<circle class="st1" cx="17.9" cy="18.7" r="17.9"/>
		<g class="st2">
			<circle class="st5" cx="22.6" cy="18.1" r="17.9"/>
			<path class="st6" d="M19.5,35.7c-8.4-1.5-14.7-8.8-14.7-17.6c0-8,5.2-14.7,12.4-17"/>
		</g>
		<path class="st14" d="M20.5,31.8V18.3c0,0,2-6.2,10.5-5.2c0,0,0,2.9-5.2,5.2s-11.1,1.3-14.4-2s-2.3-4.9-2.3-4.9s7.4-0.9,9.2,1
			C21.8,16.4,20.5,31.8,20.5,31.8z"/>
		<path class="st15" d="M22.2,13.4c1.4-1.3,3.5-2.8,6.2-3.1c0,0-1,6.2-8.5,8.9l0.1-1.4C20.3,16.1,21,14.5,22.2,13.4z"/>
		<path class="st16" d="M16.4,31.8v-6.9c0,0,1-3.2,5.4-2.7c0,0,0,1.5-2.7,2.7s-5.7,0.7-7.4-1s-1.2-2.5-1.2-2.5s3.8-0.5,4.7,0.5
			C17,23.9,16.4,31.8,16.4,31.8z"/>
		<path class="st17" d="M23.1,31.3v-5.4c0,0-0.8-2.5-4.2-2.1c0,0,0,1.2,2.1,2.1c2.1,0.9,4.5,0.5,5.8-0.8c1.3-1.3,0.9-2,0.9-2
			s-3-0.4-3.7,0.4C22.5,25.2,23.1,31.3,23.1,31.3z"/>
	</g>
	<g id="_в_ногу_со">
		<circle class="st1" cx="17.9" cy="18.7" r="17.9"/>
		<g class="st2">
			<circle class="st5" cx="22.6" cy="18.1" r="17.9"/>
			<path class="st6" d="M19.5,35.7c-8.4-1.5-14.7-8.8-14.7-17.6c0-8,5.2-14.7,12.4-17"/>
		</g>
		<g class="st2">
			<path class="st4" d="M17.9,8.5c-3.7,0-6.7,3-6.7,6.7c0,3.7,3,6.7,6.7,6.7c3.7,0,6.7-3,6.7-6.7C24.6,11.5,21.6,8.5,17.9,8.5z
				 M17.9,20c-2.7,0-4.8-2.2-4.8-4.8c0-2.7,2.2-4.8,4.8-4.8c2.7,0,4.8,2.2,4.8,4.8C22.7,17.9,20.6,20,17.9,20z"/>
			<polyline class="st4" points="11.8,12.3 10.3,10.9 13.1,8 14.6,9.4 			"/>
			<polyline class="st4" points="16,8.8 15.9,6.6 20,6.6 20,8.8 			"/>
			<polyline class="st4" points="21.3,9.4 22.8,8 25.6,10.9 24,12.3 			"/>
			<polyline class="st4" points="24.3,13.2 26.6,13.1 26.6,17.2 24.3,17.2 			"/>
			<polyline class="st4" points="11.9,18.2 10.3,19.6 13.1,22.5 14.7,21.1 			"/>
			<polyline class="st4" points="11.5,17.2 9.3,17.2 9.3,13.1 11.5,13.2 			"/>
			<polyline class="st4" points="23.9,18.1 25.6,19.6 22.8,22.6 21.2,21 			"/>
			<polyline class="st4" points="19.9,21.6 19.9,23.8 15.9,23.8 15.9,21.6 			"/>
			<circle class="st18" cx="17.9" cy="15.2" r="2.6"/>
		</g>
		<g class="st2">
			<path class="st19" d="M24.6,24.5c-1.6-0.5-3.4,0.4-3.9,2c-0.5,1.6,0.4,3.4,2,3.9c1.6,0.5,3.4-0.4,3.9-2
				C27.1,26.8,26.2,25.1,24.6,24.5z M22.9,29.6c-1.2-0.4-1.8-1.6-1.4-2.8c0.4-1.2,1.6-1.8,2.8-1.4c1.2,0.4,1.8,1.6,1.4,2.8
				C25.4,29.4,24.1,30,22.9,29.6z"/>
			<polyline class="st19" points="21.4,25.3 20.8,24.2 22.4,23.3 23,24.4 			"/>
			<polyline class="st19" points="25.4,25 25.4,25 25.8,23.8 24,23.2 23.7,24.4 			"/>
			<polyline class="st19" points="25.8,25.3 26.9,24.8 27.7,26.5 26.7,27 			"/>
			<polyline class="st19" points="26.7,27.6 27.9,27.9 27.4,29.7 26.1,29.3 			"/>
			<polyline class="st19" points="21.3,29.6 21.3,29.6 20.2,30.2 19.4,28.5 20.5,28 			"/>
			<polyline class="st19" points="20.5,27.5 19.3,27.2 19.9,25.4 21,25.8 			"/>
			<polyline class="st19" points="25.8,29.7 26.3,30.8 24.7,31.7 24.1,30.6 			"/>
			<polyline class="st19" points="23.5,30.6 23.6,30.6 23.2,31.9 21.4,31.3 21.8,30.1 21.9,30.1 			"/>
			<circle class="st20" cx="23.6" cy="27.5" r="1.2"/>
		</g>
	</g>
	<g id="идеальная_формула">
		<circle class="st1" cx="17.9" cy="18.7" r="17.9"/>
		<g class="st2">
			<circle class="st5" cx="22.6" cy="18.1" r="17.9"/>
			<path class="st6" d="M19.5,35.7c-8.4-1.5-14.7-8.8-14.7-17.6c0-8,5.2-14.7,12.4-17"/>
		</g>
		<g class="st2">
			<path class="st4" d="M7.9,17.1l6.3-6.2h6.2l-3.5,2.6l3.6,3.7l-3.1,5.3l3.1,6.4c0,0,0,0.1-0.1,0L7.9,17.1z"/>
			<path class="st4" d="M33.1,17.1l-6.3-6.2h-6.2l3.5,2.6l-3.6,3.7l3.1,5.3c0,0-2.6,5.7-2.9,6.4c0,0,0,0,0,0L33.1,17.1z"/>
			<line class="st4" x1="7.9" y1="17.1" x2="32.9" y2="17.1"/>
			<path class="st4" d="M16.9,13.5L14.2,11c0,0,0-0.1,0-0.1h12.5c0,0,0,0,0,0l-2.7,2.5"/>
			<polyline class="st4" points="17.4,22.5 14.1,17.1 26.8,17.1 23.5,22.5 			"/>
			<path class="st4" d="M26.8,11v6.1h4.1L26.8,11C26.8,11,26.8,11,26.8,11z"/>
			<path class="st4" d="M14.1,17.1V11c0,0,0,0,0,0l-4.2,6.1H14.1z"/>
			<path class="st4" d="M30.9,17.1L20.6,28.9c0,0-0.1,0-0.1,0L9.9,17.1"/>
		</g>
	</g>
</g>
<g id="Слой_2">
	<g id="экономия" class="st0">
		<circle class="st1" cx="17.9" cy="18.7" r="17.9"/>
		<g class="st2">
			<circle class="st5" cx="22.6" cy="18.1" r="17.9"/>
			<path class="st6" d="M19.5,35.7c-8.4-1.5-14.7-8.8-14.7-17.6c0-8,5.2-14.7,12.4-17"/>
		</g>
		<g class="st2">
			<g>
				<path class="st9" d="M10.4,17.7c0,0,0.2-2,4.1-2.4c2.7-0.3,3-0.7,3-0.7S15.6,19.4,10.4,17.7z"/>
				<path class="st21" d="M10.4,17.7c0,0,1.3-0.9,3.5-1.3c1-0.2,2.2-0.7,2.2-0.7"/>
			</g>
			<g>

					<ellipse transform="matrix(0.9977 -6.720123e-02 6.720123e-02 0.9977 -1.0725 0.9738)" class="st22" cx="13.9" cy="16.4" rx="5.5" ry="2.9"/>
				<path class="st23" d="M8.6,19.4l-0.2-2.6L8.6,19.4z"/>
				<path class="st22" d="M19.5,16.1l0.2,2.6L19.5,16.1z"/>
				<path class="st23" d="M19.3,17.7c-0.1-0.1-0.2-0.2-0.3-0.3c-1.2,2-5.8,2.2-7.8,1.7C9.7,18.7,9.1,18,9.1,18
					c-0.1,0.1-0.1,0.2-0.2,0.2c0,0-0.5-1.5-0.4-0.9c0.1,1.2,0.1,2,0.1,2c0.1,1.6,2.7,2.7,5.7,2.5c3-0.2,5.4-1.7,5.3-3.3l-0.2-2.6
					L19.3,17.7z"/>
			</g>
		</g>
		<g class="st2">
			<g>
				<ellipse class="st24" cx="18.4" cy="19.6" rx="5.5" ry="2.9"/>
				<path class="st23" d="M12.9,22.2l0-2.6L12.9,22.2z"/>
				<path class="st22" d="M24,19.6l0,2.6L24,19.6z"/>
				<path class="st23" d="M23.7,21.2c-0.1-0.1-0.2-0.2-0.3-0.3c-1.4,1.9-6,1.8-7.9,1.2c-1.5-0.5-2.1-1.2-2.1-1.2
					c-0.1,0.1-0.1,0.1-0.2,0.2c0,0-0.4-1.6-0.4-1c0,1.2,0,2,0,2c0,1.6,2.5,2.9,5.5,2.9c3.1,0,5.5-1.3,5.5-2.9l0-2.6L23.7,21.2z"/>
			</g>
			<g>
				<path class="st9" d="M14.8,20.6c0,0,0.4-2,4.2-2.1c2.7-0.1,3-0.5,3-0.5S19.9,22.7,14.8,20.6z"/>
				<path class="st21" d="M14.8,20.6c0,0,1.3-0.8,3.6-1c1-0.1,2.3-0.6,2.3-0.6"/>
			</g>
		</g>
		<g class="st2">
			<g>
				<path class="st9" d="M24.2,17.3c0,0,1.2-1.6,4.7,0c2.5,1.2,2.9,0.9,2.9,0.9S27.9,21.4,24.2,17.3z"/>
				<path class="st21" d="M24.2,17.3c0,0,1.6-0.2,3.6,0.6c0.9,0.4,2.3,0.5,2.3,0.5"/>
			</g>
			<g>
				<ellipse transform="matrix(0.4464 -0.8949 0.8949 0.4464 -0.6222 34.9721)" class="st22" cx="28" cy="18" rx="2.9" ry="5.5"/>
				<path class="st23" d="M21.8,17.8l1.1-2.3L21.8,17.8z"/>
				<path class="st22" d="M32.9,20.5l-1.1,2.3L32.9,20.5z"/>
				<path class="st23" d="M31.9,21.7c0-0.1,0-0.3-0.1-0.4c-2.1,1.1-6.1-1.1-7.6-2.4c-1.2-1.1-1.3-2-1.3-2c-0.1,0-0.2,0.1-0.3,0.1
					c0,0,0.4-1.6,0.1-1c-0.5,1.1-0.9,1.8-0.9,1.8c-0.7,1.4,0.9,3.7,3.7,5.1c2.7,1.4,5.5,1.3,6.3-0.1c0,0,1.4-2.9,1.1-2.3
					C32.7,20.9,31.9,21.7,31.9,21.7z"/>
			</g>
		</g>
	</g>
	<g id="безопасность">
		<circle class="st25" cx="17.9" cy="18.7" r="17.9"/>
		<g>
			<circle class="st5" cx="22.6" cy="18.1" r="17.9"/>
			<path class="st6" d="M19.5,35.7c-8.4-1.5-14.7-8.8-14.7-17.6c0-8,5.2-14.7,12.4-17"/>
		</g>
		<path class="st26" d="M20,33.3V20.8c0,0,1.8-5.8,9.7-4.9c0,0,0,2.7-4.9,4.9S14.5,22,11.5,19s-2.1-4.6-2.1-4.6s6.9-0.8,8.5,0.9
			C21.2,19,20,33.3,20,33.3z"/>
		<path class="st4" d="M19.9,21.4L19.5,9.7c0,0-1.6-1.5-3.7,0c0,0-2.7-1.1-3.9,0c0,0-0.1,0-0.1-0.1c0.5-1,2.1-4.9,7.7-5.3"/>
		<path class="st4" d="M19.3,4.3c5.8,0.3,7.3,4.3,7.9,5.3c0,0,0,0.1-0.1,0.1c-1.1-1-3.9,0-3.9,0c-2.1-1.5-3.7,0-3.7,0"/>
		<path class="st4" d="M19.5,9.7V4.4c0,0-0.1-0.1-0.1,0c-2.5,1.8-4,5.2-4,5.2"/>
		<path class="st3" d="M23.2,9.7c0,0-1.6-4.3-3.7-5.3"/>
	</g>
	<g id="баланс">
		<circle class="st25" cx="17.9" cy="18.7" r="17.9"/>
		<g>
			<circle class="st5" cx="22.6" cy="18.1" r="17.9"/>
			<path class="st6" d="M19.5,35.7c-8.4-1.5-14.7-8.8-14.7-17.6c0-8,5.2-14.7,12.4-17"/>
		</g>
		<path class="st4" d="M17.2,26.2v-8.9c0,0,1.3-4.1,7-3.5c0,0,0,2-3.5,3.5s-7.4,0.9-9.6-1.3s-1.5-3.3-1.5-3.3s4.9-0.6,6.1,0.7
			C18.1,16,17.2,26.2,17.2,26.2z"/>
		<path class="st22" d="M7.1,22.3c0,0,19.6-2.2,22.3,0"/>
		<rect x="25.9" y="8.7" class="st4" width="1.8" height="19.7"/>
		<rect x="25.9" y="18.4" class="st27" width="1.8" height="10"/>
		<g>
			<circle class="st9" cx="10.9" cy="24" r="0.9"/>
			<circle class="st9" cx="10.5" cy="26.6" r="0.9"/>
			<circle class="st9" cx="14.8" cy="24.3" r="0.9"/>
			<polyline class="st19" points="10.5,26.6 14.8,24.3 10.9,24 			"/>
		</g>
		<g>
			<circle class="st9" cx="22" cy="31.5" r="0.9"/>
			<circle class="st9" cx="22.5" cy="27.3" r="0.9"/>
			<circle class="st9" cx="19.1" cy="28.8" r="0.9"/>
			<polyline class="st19" points="22.3,27.3 19.1,28.8 22,31.5 			"/>
		</g>
		<text transform="matrix(1 0 0 1 28.8853 29.241)" class="st28 st29 st30">min</text>
		<text transform="matrix(1 0 0 1 28.8863 8.3612)" class="st28 st29 st30">max</text>
	</g>
	<g id="перевирка">
		<circle class="st25" cx="17.9" cy="18.7" r="17.9"/>
		<g>
			<circle class="st5" cx="22.6" cy="18.1" r="17.9"/>
			<path class="st6" d="M19.5,35.7c-8.4-1.5-14.7-8.8-14.7-17.6c0-8,5.2-14.7,12.4-17"/>
		</g>
		<path class="st9" d="M22.7,32.9c0.5,1.2,2.2,0.6,2.2-0.6c0-0.1,0-0.3-0.1-0.4l-3.1-7.5c0,0,0,0,0-0.1c-0.5-1.1-2.2-0.6-2.2,0.6
			c0,0.2,0,0.3,0.1,0.4L22.7,32.9C22.7,32.8,22.7,32.8,22.7,32.9z"/>
		<text transform="matrix(1 0 0 1 16.0768 20.0416)" class="st9 st31 st32">?</text>
		<path class="st9" d="M17.9,7.6c-5,0-9,4-9,9c0,5,4,9,9,9c5,0,9-4,9-9C26.9,11.7,22.8,7.6,17.9,7.6z M17.9,23.9
			c-4,0-7.3-3.3-7.3-7.3s3.3-7.3,7.3-7.3s7.3,3.3,7.3,7.3S21.9,23.9,17.9,23.9z"/>
	</g>
	<g id="КОМПЛЕКС">
		<circle class="st25" cx="17.9" cy="18.7" r="17.9"/>
		<g>
			<circle class="st5" cx="22.6" cy="18.1" r="17.9"/>
			<path class="st6" d="M19.5,35.7c-8.4-1.5-14.7-8.8-14.7-17.6c0-8,5.2-14.7,12.4-17"/>
		</g>
		<g>
			<g>
				<path class="st10" d="M22.7,7.2l8.6,4.7c0,0,1.1,0.5,0.6,1.5s-1.6,0.4-1.6,0.4L21.7,9"/>
				<ellipse transform="matrix(0.4773 -0.8787 0.8787 0.4773 4.5108 23.7635)" class="st10" cx="22.2" cy="8.1" rx="1.1" ry="0.5"/>
			</g>
			<path class="st10" d="M26.1,11.4c0,0-0.3-0.5,0.4-0.8c0.8-0.3,0.4-1.2,0.4-1.2"/>
		</g>
		<g>
			<g>
				<path class="st10" d="M16.7,9.6l-8.6,4.7c0,0-1.1,0.5-0.6,1.5s1.6,0.4,1.6,0.4l8.6-4.7"/>
				<ellipse transform="matrix(0.8787 -0.4773 0.4773 0.8787 -2.969 9.4774)" class="st10" cx="17.2" cy="10.6" rx="0.5" ry="1.1"/>
			</g>
			<path class="st10" d="M13.3,13.9c0,0,0.3-0.5-0.4-0.8c-0.8-0.3-0.4-1.2-0.4-1.2"/>
		</g>
		<g>
			<path class="st3" d="M24,15.5c0,0-1.2,2.1-1.2,3.3s8.5,11.3,5.7,11.7c-2.8,0.4-8.1,0.3-8.1,0.3h1c0,0-5.3,0-8.1-0.3
				c-2.8-0.4,5.7-10.4,5.7-11.7S18,15.5,18,15.5"/>
			<ellipse class="st4" cx="21" cy="15" rx="3.3" ry="1.2"/>
		</g>
		<g>
			<path class="st19" d="M17.2,24.2l1.9-1.9H21l-1.1,0.8l1.1,1.1l-0.9,1.6l1,2c0,0,0,0,0,0L17.2,24.2z"/>
			<path class="st19" d="M24.8,24.2l-1.9-1.9h-1.9l1.1,0.8L21,24.2l0.9,1.6c0,0-0.8,1.7-0.9,2c0,0,0,0,0,0L24.8,24.2z"/>
			<line class="st19" x1="17.2" y1="24.2" x2="24.8" y2="24.2"/>
			<path class="st19" d="M19.9,23.1l-0.8-0.8c0,0,0,0,0,0h3.8c0,0,0,0,0,0l-0.8,0.8"/>
			<polyline class="st19" points="20.1,25.8 19.1,24.2 22.9,24.2 21.9,25.8 			"/>
			<path class="st19" d="M22.9,22.4v1.9h1.3L22.9,22.4C23,22.4,22.9,22.4,22.9,22.4z"/>
			<path class="st19" d="M19.1,24.2v-1.9c0,0,0,0,0,0l-1.3,1.9H19.1z"/>
			<path class="st19" d="M24.2,24.2l-3.1,3.6c0,0,0,0,0,0l-3.2-3.6"/>
		</g>
		<path class="st9" d="M21.2,10.2l-0.5,1.1c-0.1,0.3-0.1,0.7,0.1,0.9c0.1,0.1,0.3,0.3,0.5,0.3c0.1,0,0.2,0,0.3-0.1
			c0.4-0.2,0.5-0.8,0.3-1.2L21.2,10.2z"/>
	</g>
</g>
</svg>
