<?xml version="1.0" encoding="utf-8"?>
<!-- Generator: Adobe Illustrator 22.0.1, SVG Export Plug-In . SVG Version: 6.00 Build 0)  -->
<svg version="1.1" id="Слой_1" xmlns="http://www.w3.org/2000/svg" xmlns:xlink="http://www.w3.org/1999/xlink" x="0px" y="0px"
	 width="40.7px" height="36.6px" viewBox="0 0 40.7 36.6" style="enable-background:new 0 0 40.7 36.6;" xml:space="preserve">
<style type="text/css">
	.st0{fill:#BDD600;}
	.st1{fill:none;stroke:#BDD600;stroke-width:0.5;stroke-linecap:round;stroke-miterlimit:10;stroke-dasharray:2;}
	.st2{fill:none;stroke:#FFFFFF;stroke-width:0.5;stroke-linecap:round;stroke-miterlimit:10;stroke-dasharray:2;}
	.st3{fill:none;stroke:#FFFFFF;stroke-width:0.5;stroke-miterlimit:10;}
</style>
<g id="идеальная_формула">
	<circle class="st0" cx="17.9" cy="18.7" r="17.9"/>
	<g>
		<circle class="st1" cx="22.6" cy="18.1" r="17.9"/>
		<path class="st2" d="M19.5,35.7c-8.4-1.5-14.7-8.8-14.7-17.6c0-8,5.2-14.7,12.4-17"/>
	</g>
	<g>
		<path class="st3" d="M7.9,17.1l6.3-6.2h6.2l-3.5,2.6l3.6,3.7l-3.1,5.3l3.1,6.4c0,0,0,0.1-0.1,0L7.9,17.1z"/>
		<path class="st3" d="M33.1,17.1l-6.3-6.2h-6.2l3.5,2.6l-3.6,3.7l3.1,5.3c0,0-2.6,5.7-2.9,6.4c0,0,0,0,0,0L33.1,17.1z"/>
		<line class="st3" x1="7.9" y1="17.1" x2="32.9" y2="17.1"/>
		<path class="st3" d="M16.9,13.5L14.2,11c0,0,0-0.1,0-0.1h12.5c0,0,0,0,0,0l-2.7,2.5"/>
		<polyline class="st3" points="17.4,22.5 14.1,17.1 26.8,17.1 23.5,22.5 		"/>
		<path class="st3" d="M26.8,11v6.1h4.1L26.8,11C26.8,11,26.8,11,26.8,11z"/>
		<path class="st3" d="M14.1,17.1V11c0,0,0,0,0,0l-4.2,6.1H14.1z"/>
		<path class="st3" d="M30.9,17.1L20.6,28.9c0,0-0.1,0-0.1,0L9.9,17.1"/>
	</g>
</g>
</svg>
