<?xml version="1.0" encoding="utf-8"?>
<!-- Generator: Adobe Illustrator 22.0.1, SVG Export Plug-In . SVG Version: 6.00 Build 0)  -->
<svg version="1.1" id="Слой_1" xmlns="http://www.w3.org/2000/svg" xmlns:xlink="http://www.w3.org/1999/xlink" x="0px" y="0px"
	 width="40.7px" height="36.6px" viewBox="0 0 40.7 36.6" style="enable-background:new 0 0 40.7 36.6;" xml:space="preserve">
<style type="text/css">
	.st0{fill:#BDD600;}
	.st1{fill:none;stroke:#BDD600;stroke-width:0.5;stroke-linecap:round;stroke-miterlimit:10;stroke-dasharray:2;}
	.st2{fill:none;stroke:#FFFFFF;stroke-width:0.5;stroke-linecap:round;stroke-miterlimit:10;stroke-dasharray:2;}
	.st3{fill:none;stroke:#FFFFFF;stroke-width:0.75;stroke-miterlimit:10;}
	.st4{opacity:0.4;fill:#FFFFFF;}
	.st5{opacity:0.63;fill:none;stroke:#FFFFFF;stroke-width:0.5;stroke-miterlimit:10;}
	.st6{fill:none;stroke:#FFFFFF;stroke-width:0.5;stroke-miterlimit:10;}
</style>
<g id="урожайность">
	<circle class="st0" cx="17.9" cy="18.7" r="17.9"/>
	<g>
		<circle class="st1" cx="22.6" cy="18.1" r="17.9"/>
		<path class="st2" d="M19.5,35.7c-8.4-1.5-14.7-8.8-14.7-17.6c0-8,5.2-14.7,12.4-17"/>
	</g>
	<path class="st3" d="M20.5,31.8V18.3c0,0,2-6.2,10.5-5.2c0,0,0,2.9-5.2,5.2s-11.1,1.3-14.4-2s-2.3-4.9-2.3-4.9s7.4-0.9,9.2,1
		C21.8,16.4,20.5,31.8,20.5,31.8z"/>
	<path class="st4" d="M22.2,13.4c1.4-1.3,3.5-2.8,6.2-3.1c0,0-1,6.2-8.5,8.9l0.1-1.4C20.3,16.1,21,14.5,22.2,13.4z"/>
	<path class="st5" d="M16.4,31.8v-6.9c0,0,1-3.2,5.4-2.7c0,0,0,1.5-2.7,2.7s-5.7,0.7-7.4-1s-1.2-2.5-1.2-2.5s3.8-0.5,4.7,0.5
		C17,23.9,16.4,31.8,16.4,31.8z"/>
	<path class="st6" d="M23.1,31.3v-5.4c0,0-0.8-2.5-4.2-2.1c0,0,0,1.2,2.1,2.1c2.1,0.9,4.5,0.5,5.8-0.8c1.3-1.3,0.9-2,0.9-2
		s-3-0.4-3.7,0.4C22.5,25.2,23.1,31.3,23.1,31.3z"/>
</g>
</svg>
