<?xml version="1.0" encoding="utf-8"?>
<!-- Generator: Adobe Illustrator 22.0.1, SVG Export Plug-In . SVG Version: 6.00 Build 0)  -->
<svg version="1.1" id="Слой_1" xmlns="http://www.w3.org/2000/svg" xmlns:xlink="http://www.w3.org/1999/xlink" x="0px" y="0px"
	 width="40.7px" height="36.6px" viewBox="0 0 40.7 36.6" style="enable-background:new 0 0 40.7 36.6;" xml:space="preserve">
<style type="text/css">
	.st0{fill:#BDD600;}
	.st1{fill:none;stroke:#BDD600;stroke-width:0.5;stroke-linecap:round;stroke-miterlimit:10;stroke-dasharray:2;}
	.st2{fill:none;stroke:#FFFFFF;stroke-width:0.5;stroke-linecap:round;stroke-miterlimit:10;stroke-dasharray:2;}
	.st3{fill:none;stroke:#FFFFFF;stroke-width:0.75;stroke-miterlimit:10;}
	.st4{fill:none;stroke:#FFFFFF;stroke-width:0.5;stroke-miterlimit:10;}
	.st5{fill:none;stroke:#FFFFFF;stroke-width:0.5;stroke-linecap:round;stroke-miterlimit:10;}
</style>
<g id="безопасность">
	<circle class="st0" cx="17.9" cy="18.7" r="17.9"/>
	<g>
		<circle class="st1" cx="22.6" cy="18.1" r="17.9"/>
		<path class="st2" d="M19.5,35.7c-8.4-1.5-14.7-8.8-14.7-17.6c0-8,5.2-14.7,12.4-17"/>
	</g>
	<path class="st3" d="M20,33.3V20.8c0,0,1.8-5.8,9.7-4.9c0,0,0,2.7-4.9,4.9S14.5,22,11.5,19s-2.1-4.6-2.1-4.6s6.9-0.8,8.5,0.9
		C21.2,19,20,33.3,20,33.3z"/>
	<path class="st4" d="M19.9,21.4L19.5,9.7c0,0-1.6-1.5-3.7,0c0,0-2.7-1.1-3.9,0c0,0-0.1,0-0.1-0.1c0.5-1,2.1-4.9,7.7-5.3"/>
	<path class="st4" d="M19.3,4.3c5.8,0.3,7.3,4.3,7.9,5.3c0,0,0,0.1-0.1,0.1c-1.1-1-3.9,0-3.9,0c-2.1-1.5-3.7,0-3.7,0"/>
	<path class="st4" d="M19.5,9.7V4.4c0,0-0.1-0.1-0.1,0c-2.5,1.8-4,5.2-4,5.2"/>
	<path class="st5" d="M23.2,9.7c0,0-1.6-4.3-3.7-5.3"/>
</g>
</svg>
