<?xml version="1.0" encoding="utf-8"?>
<!-- Generator: Adobe Illustrator 22.0.1, SVG Export Plug-In . SVG Version: 6.00 Build 0)  -->
<svg version="1.1" xmlns="http://www.w3.org/2000/svg" xmlns:xlink="http://www.w3.org/1999/xlink" x="0px" y="0px" width="465.3px"
	 height="558px" viewBox="0 0 465.3 558" style="enable-background:new 0 0 465.3 558;" xml:space="preserve">
<style type="text/css">
	.st0{opacity:0.5;}
	.st1{opacity:0.72;fill:#FFFFFF;}
	.st2{opacity:0.88;fill:#FFFFFF;}
	.st3{opacity:0.68;fill:#FFFFFF;}
	.st4{opacity:0.85;fill:#FFFFFF;}
	.st5{opacity:0.86;fill:#FFFFFF;}
	.st6{fill:none;}
	.st7{opacity:0.82;fill:#FFFFFF;}
	.st8{opacity:0.65;}
	.st9{fill:#E5EDC6;}
	.st10{fill:none;stroke:#036635;stroke-width:0.5;}
	.st11{fill:none;stroke:#036635;stroke-width:0.5;stroke-linejoin:round;stroke-dasharray:2.9476,0.7369;}
	.st12{fill:#036635;}
	.st13{fill:#7DB336;}
	.st14{fill:none;stroke:#036635;stroke-width:0.7894;}
	.st15{fill:none;stroke:#036635;stroke-width:0.7628;stroke-dasharray:3.1679,0.792;}
	.st16{fill:none;stroke:#036635;stroke-width:0.5;stroke-linecap:round;stroke-linejoin:round;}
	.st17{font-family:'MuseoSansCyrl-700';}
	.st18{font-size:5.2594px;}
	.st19{font-size:5.2897px;}
	.st20{font-family:'MuseoSansCyrl-500';}
	.st21{font-size:3.8641px;}
	.st22{font-size:6.3658px;}
	.st23{fill:none;stroke:#7DB336;stroke-width:0.5;}
	.st24{fill:none;stroke:#036635;stroke-width:0.5;stroke-linecap:round;stroke-linejoin:round;stroke-dasharray:2.9476,1.5;}
	.st25{fill:none;stroke:#036635;stroke-width:0.5;stroke-dasharray:2.565,0.6413;}
	.st26{fill:none;stroke:#036635;stroke-width:0.5;stroke-dasharray:2.9531,0.7383;}
	.st27{fill:none;stroke:#036635;stroke-width:0.5;stroke-dasharray:2.7273,0.6818;}
	.st28{fill:none;stroke:#036635;stroke-width:0.7379;}
	.st29{fill:none;stroke:#036635;stroke-width:0.5;stroke-linejoin:round;}
	.st30{fill:none;stroke:#036635;stroke-width:2.0327;}
</style>
<g id="Layer_4">
	<g class="st0">
		<path class="st1" d="M338.7,209.6c-17.7,0-34.3-6.9-46.8-19.4l-38.6-38.6c-12.5-12.5-19.4-29.1-19.4-46.8
			c0-17.7,6.9-34.3,19.4-46.8l38.6-38.6C304.4,6.9,321,0,338.7,0c17.7,0,34.3,6.9,46.8,19.4L424.1,58c25.8,25.8,25.8,67.8,0,93.6
			l-38.6,38.6C373,202.7,356.4,209.6,338.7,209.6C338.7,209.6,338.7,209.6,338.7,209.6z"/>
		<path class="st2" d="M150.5,246.2c-4.7,0-9.5,0-14.4,0c-3.6,0-8-0.2-12.7-0.9c-4.8-0.8-9.3-2-12.6-3c-8-2.3-15.6-6.2-23.3-11.7
			l-0.1,0c-8.4-6.1-15.4-13.6-21-22.4c-5.7-9-9.5-18.3-11.3-27.5c-1.3-6.7-1.4-12.9-1.4-17.9l0-1c-0.1-10.1-0.1-20.1,0-29.4l0-4.2
			c0-2.8,0-5.5,0-8.3c0-3.1,0-6.3,0.1-9.4c0-1.8,0-3.7,0-5.5l0-0.3c0.2-15.9,11.9-27.4,27.7-27.4c16.5-0.1,34.3-0.1,52.1-0.2l0.3,0
			c1.6,0,4.2,0,7.1,0.1c2.5,0,5.2,0.1,6.4,0.1l0.5,0c6.7,0,13.5,0.9,20.3,2.7c6.9,1.8,13.5,4.5,19.8,8.1
			c8.1,4.6,15.2,10.5,21.2,17.5c7.2,8.4,12.6,17.9,16,28.2c2.3,7.3,3.7,14.5,3.9,21.7c0.1,2.7,0.1,5.2,0.1,7.4c0,0.7,0,1.4,0,2.1
			l0,53.5c0,16.2-11.7,27.9-27.9,27.9h-37.9c-2.2,0-4.3,0-6.5,0C155,246.2,152.7,246.2,150.5,246.2z"/>
		
			<ellipse transform="matrix(0.991 -0.1335 0.1335 0.991 -45.6529 19.0288)" class="st3" cx="119" cy="349.8" rx="115.7" ry="115.7"/>
		
			<ellipse transform="matrix(0.202 -0.9794 0.9794 0.202 -92.7909 709.0558)" class="st4" cx="388.7" cy="411.5" rx="75.5" ry="75.5"/>
		<path class="st5" d="M197.2,558c-18.1,0-34.3-9.4-43.4-25.1c-9.1-15.7-9.1-34.4,0-50.1l57.8-100.1c9.1-15.7,25.3-25.1,43.4-25.1
			c18.1,0,34.3,9.4,43.4,25.1l57.8,100.1c9.1,15.7,9.1,34.4,0,50.1c-9.1,15.7-25.3,25.1-43.4,25.1H197.2z"/>
		<path class="st6" d="M251.7,437.7c-56.1,0-101.8-45.7-101.8-101.8V206.8c0-56.2,45.7-101.8,101.8-101.8c17.8,0,35.4,4.7,50.9,13.7
			l111.8,64.5c15.6,9,28.5,21.8,37.3,37.2c8.9,15.4,13.6,33,13.6,50.9c0,18-4.7,35.6-13.6,50.9c-8.9,15.4-21.8,28.2-37.3,37.2
			L302.6,424C287.1,433,269.5,437.7,251.7,437.7z"/>
		<path class="st7" d="M265.6,382.8c-28.2,0-51.2-22.9-51.2-51.2V211c0-28.2,22.9-51.2,51.2-51.2c8.9,0,17.7,2.4,25.5,6.9
			l104.5,60.4c16,9.2,25.6,25.8,25.6,44.3c0,18.5-9.6,35-25.6,44.3L291.1,376C283.3,380.5,274.5,382.8,265.6,382.8z"/>
	</g>
</g>
<g id="Layer_3">
	<g class="st8">
		
			<ellipse transform="matrix(0.225 -0.9744 0.9744 0.225 -99.6525 697.6557)" class="st9" cx="388.7" cy="411.5" rx="49.3" ry="49.3"/>
		<path class="st9" d="M381.9,250.9c15.8,9.1,15.8,31.9,0,41L329.6,322l-52.3,30.2c-15.8,9.1-35.5-2.3-35.5-20.5v-60.4V211
			c0-18.2,19.7-29.6,35.5-20.5l52.3,30.2L381.9,250.9z"/>
		<path class="st9" d="M404.7,77.4L366,38.8c-15.1-15.1-39.6-15.1-54.7,0l-38.6,38.6c-15.1,15.1-15.1,39.6,0,54.7l38.6,38.6
			c15.1,15.1,39.6,15.1,54.7,0l38.6-38.6C419.8,117,419.8,92.5,404.7,77.4z"/>
		<path class="st9" d="M77.6,118.1c0-5.1,0.1-10.3,0.1-15.4c0-1.5,0-1.6,1.5-1.6c18.1-0.1,36.2-0.2,54.3-0.2c2.7,0,12,0.2,14.7,0.2
			c4.9,0,9.7,0.6,14.4,1.9c4.9,1.3,9.5,3.2,13.9,5.7c5.7,3.3,10.7,7.4,15,12.3c5.1,5.9,8.9,12.5,11.3,19.9c1.6,5,2.6,10,2.8,15.2
			c0.1,2.9,0.1,5.8,0.1,8.8c0,2,0,3.9,0,5.9c0,14.6,0,29.1,0,43.7c0,2.1,0,4.1,0,6.2c0,1.6,0,1.6-1.6,1.6c-10.9,0-28.6,0-39.5,0
			c-4.6,0-9.1,0-13.7,0c-4.9,0-9.8,0-14.7,0c-3,0-6.1-0.1-9-0.6c-3.3-0.5-6.6-1.4-9.8-2.3c-5.8-1.7-11-4.6-15.8-8.1
			c-5.9-4.3-10.9-9.6-14.8-15.8c-3.7-5.9-6.7-12.4-8.1-19.3c-0.9-4.8-0.9-9.7-0.9-14.6c-0.1-10.1-0.1-20.2,0-30.4
			C77.6,126.8,77.6,122.5,77.6,118.1z"/>
		
			<ellipse transform="matrix(0.1296 -0.9916 0.9916 0.1296 -243.285 422.5287)" class="st9" cx="119" cy="349.8" rx="86.6" ry="86.6"/>
		<path class="st9" d="M235.4,396.4c8.7-15.1,30.5-15.1,39.2,0l28.9,50.1l28.9,50.1c8.7,15.1-2.2,34-19.6,34H255h-57.8
			c-17.4,0-28.3-18.9-19.6-34l28.9-50.1L235.4,396.4z"/>
	</g>
	
		<ellipse transform="matrix(0.225 -0.9744 0.9744 0.225 -99.6525 697.6557)" class="st10" cx="388.7" cy="411.5" rx="49.3" ry="49.3"/>
	<g>
		<path class="st10" d="M381.9,250.9c15.8,9.1,15.8,31.9,0,41L329.6,322l-52.3,30.2c-15.8,9.1-35.5-2.3-35.5-20.5v-60.4V211
			c0-18.2,19.7-29.6,35.5-20.5l52.3,30.2L381.9,250.9z"/>
		<path class="st10" d="M241.5,294.1h-5.6c-1.7,0-3-1.4-3-3l0,0v-18.5"/>
		<path class="st10" d="M155.1,255.2h74.7c1.7,0,3,1.4,3,3v14.3"/>
		<path class="st10" d="M318.5,214v-18.2c0-1.7-1.4-3-3-3h-3.7"/>
		<path class="st10" d="M314.8,192.8h-6.4c-1.7,0-3-1.4-3-3v-24.9"/>
		<path class="st11" d="M388.7,361.8v-19.2l0,0c0-1.7-1.4-3-3-3l-3.4,0c-1.7,0-3-1.4-3-3l0,0l0,0c0-1.7,1.4-3,3-3h12.2
			c1.7,0,3-1.4,3-3l0,0l0,0c0-1.7-1.4-3-3-3h-5.2c-1.7,0-3-1.4-3-3l0,0v-2.8v-17l0,0c0-1.7-1.4-3-3-3H365"/>
		<path class="st10" d="M383.7,361.8c0,2.8,2.3,5,5.1,5c2.8,0,5-2.3,5-5c0-2.8-2.3-5-5-5C385.9,356.7,383.7,359,383.7,361.8z
			 M385.9,361.8c0-1.5,1.3-2.8,2.8-2.8c1.5,0,2.8,1.3,2.8,2.8c0,1.5-1.3,2.8-2.8,2.8C387.2,364.6,385.9,363.3,385.9,361.8z"/>
		<path class="st12" d="M380.8,336.5c0,0.9,0.7,1.6,1.6,1.6c0.9,0,1.6-0.7,1.6-1.6c0-0.9-0.7-1.6-1.6-1.6
			C381.5,334.8,380.8,335.5,380.8,336.5z"/>
		<path class="st12" d="M392.4,330.4c0,0.9,0.7,1.6,1.6,1.6c0.9,0,1.6-0.7,1.6-1.6c0-0.9-0.7-1.6-1.6-1.6
			C393.2,328.8,392.4,329.5,392.4,330.4z"/>
		<path class="st12" d="M387.1,361.8c0,0.9,0.7,1.6,1.7,1.6c0.9,0,1.6-0.7,1.6-1.6c0-0.9-0.7-1.6-1.6-1.6
			C387.8,360.1,387.1,360.9,387.1,361.8z"/>
		<path class="st12" d="M381.2,304.9c0,0.9,0.7,1.7,1.6,1.7c0.9,0,1.6-0.7,1.6-1.7c0-0.9-0.7-1.6-1.6-1.6
			C382,303.2,381.2,304,381.2,304.9z"/>
		<path class="st12" d="M241.5,292.5c-0.9,0-1.6,0.7-1.6,1.6c0,0.9,0.7,1.7,1.6,1.7c0.9,0,1.6-0.7,1.6-1.7
			C243.2,293.2,242.4,292.5,241.5,292.5z"/>
		<path class="st12" d="M307.1,164.9c0-0.9-0.7-1.6-1.6-1.6c-0.9,0-1.6,0.7-1.6,1.6c0,0.9,0.7,1.6,1.6,1.6
			C306.3,166.6,307.1,165.8,307.1,164.9z"/>
		<path class="st12" d="M384.1,342.5c0,0.9,0.7,1.6,1.6,1.6c0.9,0,1.7-0.7,1.7-1.6c0-0.9-0.7-1.7-1.7-1.7
			C384.8,340.8,384.1,341.5,384.1,342.5z"/>
		<path class="st10" d="M320.1,214c0-0.9-0.7-1.6-1.6-1.6c-0.9,0-1.6,0.7-1.6,1.6c0,0.9,0.7,1.6,1.6,1.6
			C319.4,215.6,320.1,214.9,320.1,214z"/>
		<path class="st10" d="M322.3,214c0-2.1-1.7-3.8-3.8-3.8c-2.1,0-3.8,1.7-3.8,3.8c0,2.1,1.7,3.8,3.8,3.8
			C320.6,217.8,322.3,216.1,322.3,214z"/>
		<path class="st13" d="M364,297.2l-2.6,2.6c-1,1-1,2.7,0,3.7l2.6,2.6c1,1,2.7,1,3.7,0l2.6-2.6c1-1,1-2.7,0-3.7l-2.6-2.6
			C366.7,296.1,365,296.1,364,297.2z M368.3,300.6c0.6,0.6,0.6,1.5,0,2l-1.4,1.4c-0.6,0.6-1.5,0.6-2,0l-1.4-1.4
			c-0.6-0.6-0.6-1.5,0-2l1.4-1.4c0.6-0.6,1.5-0.6,2,0L368.3,300.6z"/>
		<path class="st12" d="M156.1,257.5c-0.5,0.5-1.4,0.5-1.9,0l-1.3-1.3c-0.5-0.5-0.5-1.4,0-1.9l1.3-1.3c0.5-0.5,1.4-0.5,1.9,0
			l1.3,1.3c0.5,0.5,0.5,1.4,0,1.9L156.1,257.5z"/>
		<path class="st10" d="M156.5,258.6c-0.8,0.8-2,0.8-2.8,0l-2-2c-0.8-0.8-0.8-2,0-2.8l2-2c0.8-0.8,2-0.8,2.8,0l2,2
			c0.8,0.8,0.8,2,0,2.8L156.5,258.6z"/>
		<path class="st12" d="M317.1,195.9L317.1,195.9l-0.9,1.5l-0.9,1.5v0h0c-0.1,0.2-0.3,0.3-0.6,0.3c-0.3,0-0.5-0.1-0.6-0.3h0
			l-0.9-1.5l-0.9-1.5c-0.1-0.1-0.1-0.2-0.1-0.4c0-0.4,0.3-0.7,0.7-0.7h1.7h1.7c0.4,0,0.7,0.3,0.7,0.7
			C317.2,195.7,317.2,195.8,317.1,195.9L317.1,195.9z"/>
		<line class="st14" x1="340.5" y1="278.3" x2="365.9" y2="278.3"/>
		<line class="st14" x1="245" y1="278.3" x2="262.5" y2="278.3"/>
		<line class="st15" x1="342.6" y1="280.7" x2="361.3" y2="280.7"/>
		<line class="st15" x1="341" y1="282.9" x2="359.8" y2="282.9"/>
		<line class="st15" x1="342.6" y1="285.2" x2="364.2" y2="285.2"/>
		<line class="st15" x1="246.6" y1="280.7" x2="260.1" y2="280.7"/>
		<line class="st15" x1="245.5" y1="282.9" x2="259" y2="282.9"/>
		<line class="st15" x1="246.6" y1="285.2" x2="262.2" y2="285.2"/>
		<g>
			<path class="st16" d="M270.1,228.9c-3.2,1-8.5,3.4-8.2,12.5c0.2,9.2,0.6,54.6,1.1,57.8c0.5,3.2,2,8.5,4.1,10.2
				c2.1,1.6,12.3,10.5,14,11.6c1.7,1.1,4.8,2.7,6.8,2.8c2,0.1,2.9,0,2.9,0s1.4,0.8,2.7,0.6c1.3-0.3,4.8-1.9,4.8-1.9s1,0.4,3.8-0.7
				c2.8-1.1,27.9-10.6,30.2-11.8c2.4-1.1,4.7-3.5,6.1-7.5c1.4-4,1.8-4.5,1.8-11.8c0-7.3,1-40.8,1.1-45.6c0.1-4.8-0.3-7.3-1.3-9.8
				c-1.1-2.5-2.5-5.3-4.2-5.8c-1.7-0.5-3.8-1.3-5.7-1.4c-1.9-0.1-1.3,0.7-2.7,0.8c-1.4,0-2.9,0.2-3.1,0.5c-0.2,0.3-1.5,0.3-2.6,0.2
				c-1.1,0-1.9-0.3-1.9-0.3s-1.8-2.3-2.5-3.1c-0.7-0.7-3.1-0.2-8.2,0c-5.1,0.2-11.2,0.6-13.3,0.6c-2.2,0-1.7,1.1-1.7,1.1
				s-5.6,0.2-10,0.4c-4.4,0.2-6.1,0.3-6.1,0.3s-0.6-0.8-2-0.9c-1.4,0-2,0.9-2,0.9S270.7,228.7,270.1,228.9z"/>
			<path class="st16" d="M318,229.8c0,0-20.7,0.9-22.1,1c-1.4,0.1-4.1,1-6.5,2.4c-2.3,1.4-7.6,7.1-8.9,7.8c-1.3,0.7-9.1-0.7-9.7-1.5
				"/>
			<path class="st16" d="M280.3,229.4c3.9,0.1,7.9,0.4,7.9,0.4v4.2c0,0-0.3,0.9-4.8,1.1c-4.6,0.2-9.9,0.1-10.8-0.4
				c-0.9-0.5-0.6-1,0-1.1c0.6-0.1,0.5-3.8,0.5-3.8S276.1,229.3,280.3,229.4z"/>
			<line class="st16" x1="277.7" y1="230.8" x2="277.7" y2="234.4"/>
			<line class="st16" x1="283.2" y1="230.8" x2="283.2" y2="234.2"/>
			<path class="st16" d="M273.9,233.7v-3.3c0,0,2.6,0.6,6.3,0.6c3.8,0,7.1-0.6,7.1-0.6"/>
			<path class="st16" d="M271.3,309.4c0,0-1.1-22.9-1.5-39.2c-0.4-16.3,0.4-22.7,0.6-24.1c0.2-1.5,2.3-6.8,2.5-7.6
				c0.2-0.8-0.2-1.8-0.2-1.8s-1.7-0.5-1.6-1.1c0.2-0.6,0-0.4,1.6,0.2c1.6,0.6,6.4,0.5,9.2,0.4c2.8-0.1,3.3-0.2,3.3-0.2"/>
			<path class="st16" d="M339.4,245.6c0,0-12.2,2-20.7,3.1c-8.5,1.1-22.6,2.2-22.6,2.2l-0.6,59.1c0,0,19.2-5.4,27.5-8.3
				c8.3-2.9,14.9-6.2,14.9-6.2"/>
			<path class="st16" d="M283.2,251.3c0,0,0-5.9,0-6.9c0-1,2.7-3,3.6-2.4c0.9,0.6,0.9,0.1,1,2.4c0.1,2.3,0,61.7,0,67.7
				c0,5.9,2,9.4,2,9.4"/>
			<path class="st16" d="M299,252.6v51c0,0,14-2.5,21.9-5.2c7.9-2.7,16.9-6,16.9-6l1-44.4c0,0-8.9,2-18.4,3
				C310.9,252.1,300.9,252.7,299,252.6z"/>
			<path class="st16" d="M309.5,275.8l-2.9,0.3c-1.3,0.1-2.4-0.9-2.4-2.4v-21.2c0,0,5.6-0.3,15.1-1.3c10.4-1.1,14.4-2.1,14.4-2.1
				v21.1c0,1.5-1.1,2.8-2.4,2.9l-2.9,0.3"/>
			<path class="st16" d="M318.9,271.2c-6.8-0.3-9.4,1-9.4,1v7.3c0,0,2.6-1.3,9.4-1c6.3,0.3,9.4-1,9.4-1v-7.3
				C328.3,270.2,325.2,271.5,318.9,271.2z"/>
			<text transform="matrix(1.0346 -0.114 0 1 311.934 277.6254)" class="st12 st17 st18">АКВА</text>
			<text transform="matrix(1.0227 -0.185 4.800000e-04 1 307.7699 289.3856)" class="st12 st17 st19">Марка C</text>
			<text transform="matrix(1.0227 -0.185 4.800000e-04 1 307.9943 296.4804)" class="st12 st17 st19">Марка В</text>
			<g>
				<g>
					<path class="st13" d="M316.8,256.4l-5.3,0.6v3.4c0,1.5,1.1,2.6,2.4,2.4l5.3-0.6v-3.4C319.3,257.3,318.2,256.3,316.8,256.4z"/>
					<path class="st13" d="M320.2,259.7v2.4l3.7-0.4c1-0.1,1.7-1,1.7-2.1v-2.4l-3.7,0.4C320.9,257.7,320.2,258.7,320.2,259.7z"/>
					<path class="st13" d="M320.2,255.4v1.8l2.8-0.3c0.7-0.1,1.3-0.8,1.3-1.6v-1.8l-2.8,0.3C320.8,254,320.2,254.7,320.2,255.4z"/>
				</g>
				<g>
					<path class="st12" d="M310,270.8v-1.4l-1.8,0.2c-1.1,0.1-2-0.8-2-2v-3.1l2.9-0.3c0.6-0.1,1.1,0.1,1.5,0.6
						c0.4-0.5,0.9-0.8,1.5-0.9l2.9-0.3v3.1c0,1.2-0.9,2.4-2,2.5l-1.8,0.2v1.4L310,270.8z M312.8,268c0.5-0.1,0.9-0.6,0.9-1.1V265
						l-1.8,0.2c-0.5,0.1-0.9,0.6-0.9,1.1v1.8L312.8,268z M307.2,267.5c0,0.6,0.4,1,0.9,0.9l1.8-0.2v-1.8c0-0.6-0.4-1-0.9-0.9
						l-1.8,0.2V267.5z"/>
					<path class="st12" d="M315.3,270.2v-4.4c0-1.2,0.9-2.4,2-2.5l2.9-0.3v2.3c0,1.2-0.9,2.4-2,2.5l-1.8,0.2v2.2L315.3,270.2z
						 M318.2,266.6c0.5-0.1,0.9-0.6,0.9-1.1v-1l-1.8,0.2c-0.5,0.1-0.9,0.6-0.9,1.1v1L318.2,266.6z"/>
					<path class="st12" d="M322.8,269.4c-1.1,0.1-2-0.8-2-2v-2.2c0-1.2,0.9-2.4,2-2.5l2.9-0.3v2.3c0,1.2-0.9,2.4-2,2.5l-1.8,0.2
						c0,0.5,0.5,0.9,0.9,0.8l2.9-0.3v1.2L322.8,269.4z M323.6,266c0.5-0.1,0.9-0.6,0.9-1.1v-1l-1.8,0.2c-0.5,0.1-0.9,0.6-0.9,1.1v1
						L323.6,266z"/>
					<path class="st12" d="M329.9,268.6v-2.2l-1.8,0.2c-0.5,0.1-0.9,0.6-0.9,1.1v1.1l-1.1,0.1v-1.1c0-0.6,0.2-1.2,0.7-1.7
						c-0.4-0.4-0.7-0.9-0.7-1.6v-2.3l2.9-0.3c1.1-0.1,2,0.8,2,2v4.4L329.9,268.6z M327.2,264.5c0,0.6,0.4,1,0.9,0.9l1.8-0.2v-1
						c0-0.6-0.4-1-0.9-0.9l-1.8,0.2V264.5z"/>
				</g>
			</g>
		</g>
		<g>
			<path class="st12" d="M330.7,260.9c-0.3,0-0.6,0.3-0.6,0.7c0,0.4,0.3,0.7,0.6,0.7c0.3,0,0.6-0.3,0.6-0.7
				C331.3,261.2,331,260.9,330.7,260.9z M330.9,261.9l-0.1-0.2c0-0.1-0.1-0.1-0.1-0.1c0,0,0,0,0,0c0,0,0,0-0.1,0l0,0v0.3l-0.2,0
				v-0.8l0.3,0c0.1,0,0.1,0,0.2,0c0,0,0.1,0,0.1,0.1c0,0,0,0.1,0,0.1c0,0.1,0,0.1,0,0.2c0,0-0.1,0.1-0.1,0.1c0,0,0.1,0,0.1,0.1
				c0,0,0,0.1,0.1,0.1l0.1,0.2L330.9,261.9z"/>
			<path class="st12" d="M330.8,261.4C330.8,261.3,330.8,261.3,330.8,261.4C330.8,261.3,330.8,261.3,330.8,261.4
				c-0.1-0.1-0.1-0.1-0.2-0.1l-0.1,0v0.2l0.1,0c0.1,0,0.1,0,0.1,0C330.8,261.5,330.8,261.4,330.8,261.4
				C330.8,261.4,330.8,261.4,330.8,261.4z"/>
		</g>
	</g>
	<line class="st14" x1="417" y1="415.9" x2="435.6" y2="415.9"/>
	<line class="st14" x1="346.8" y1="415.9" x2="359.7" y2="415.9"/>
	<line class="st15" x1="418.5" y1="417.7" x2="432.3" y2="417.7"/>
	<line class="st15" x1="417.4" y1="419.3" x2="431.2" y2="419.3"/>
	<line class="st15" x1="418.5" y1="421" x2="434.4" y2="421"/>
	<line class="st15" x1="348" y1="417.7" x2="357.9" y2="417.7"/>
	<line class="st15" x1="347.2" y1="419.3" x2="357.1" y2="419.3"/>
	<line class="st15" x1="348" y1="421" x2="359.5" y2="421"/>
	<g>
		<g>
			<path class="st16" d="M365.3,379.6c-2.4,0.8-6.2,2.5-6,9.2c0.2,6.8,0.5,40.1,0.8,42.5c0.4,2.4,1.5,6.3,3,7.5
				c1.6,1.2,9,7.7,10.3,8.5c1.3,0.8,3.5,2,5,2.1c1.5,0.1,2.1,0,2.1,0s1,0.6,2,0.4c1-0.2,3.5-1.4,3.5-1.4s0.7,0.3,2.8-0.5
				c2.1-0.8,20.5-7.8,22.2-8.6c1.7-0.8,3.5-2.6,4.5-5.5c1-2.9,1.3-3.3,1.3-8.6c0-5.4,0.7-30,0.8-33.5c0.1-3.5-0.2-5.4-1-7.2
				c-0.8-1.8-1.9-3.9-3.1-4.3c-1.2-0.4-2.8-1-4.2-1.1c-1.4-0.1-0.9,0.5-2,0.6c-1.1,0-2.1,0.2-2.3,0.4c-0.2,0.2-1.1,0.2-1.9,0.2
				c-0.8,0-1.4-0.2-1.4-0.2s-1.3-1.7-1.8-2.3c-0.5-0.5-2.3-0.2-6,0c-3.7,0.2-8.2,0.4-9.8,0.5c-1.6,0-1.3,0.8-1.3,0.8
				s-4.1,0.2-7.4,0.3c-3.2,0.2-4.5,0.2-4.5,0.2s-0.4-0.6-1.5-0.6c-1,0-1.5,0.6-1.5,0.6S365.7,379.4,365.3,379.6z"/>
			<path class="st16" d="M400.5,380.3c0,0-15.2,0.7-16.3,0.7c-1.1,0-3,0.7-4.7,1.8c-1.7,1.1-5.6,5.2-6.5,5.7
				c-0.9,0.5-6.7-0.5-7.2-1.1"/>
			<path class="st16" d="M372.8,380c2.9,0.1,5.8,0.3,5.8,0.3v3.1c0,0-0.2,0.6-3.5,0.8c-3.4,0.2-7.3,0.1-8-0.3
				c-0.7-0.4-0.4-0.7,0-0.8c0.4-0.1,0.4-2.8,0.4-2.8S369.7,379.9,372.8,380z"/>
			<line class="st16" x1="370.9" y1="381" x2="370.9" y2="383.7"/>
			<line class="st16" x1="374.9" y1="381" x2="374.9" y2="383.5"/>
			<path class="st16" d="M368.1,383.2v-2.4c0,0,1.9,0.4,4.6,0.4c2.8,0,5.2-0.4,5.2-0.4"/>
			<path class="st16" d="M366.2,438.7c0,0-0.8-16.8-1.1-28.8c-0.3-12,0.3-16.7,0.4-17.7c0.2-1.1,1.7-5,1.8-5.6
				c0.2-0.6-0.1-1.3-0.1-1.3s-1.3-0.4-1.2-0.8c0.1-0.4,0-0.3,1.2,0.2c1.2,0.4,4.7,0.3,6.7,0.3c2.1-0.1,2.4-0.2,2.4-0.2"/>
			<path class="st16" d="M416.2,391.9c0,0-9,1.5-15.2,2.3c-6.3,0.8-16.6,1.6-16.6,1.6l-0.4,43.4c0,0,14.1-4,20.2-6.1
				c6.1-2.1,11-4.6,11-4.6"/>
			<path class="st16" d="M374.9,396.1c0,0,0-4.3,0-5.1c0-0.8,2-2.2,2.7-1.7c0.7,0.4,0.7,0.1,0.7,1.7c0.1,1.7,0,45.3,0,49.7
				c0,4.4,1.5,6.9,1.5,6.9"/>
			<path class="st16" d="M386.5,397.1v37.5c0,0,10.3-1.8,16.1-3.8c5.8-2,12.4-4.4,12.4-4.4l0.7-32.6c0,0-6.5,1.5-13.5,2.2
				C395.3,396.6,387.9,397.1,386.5,397.1z"/>
			<path class="st16" d="M394.2,414l-2.2,0.2c-1,0.1-1.8-0.7-1.8-1.8v-15.6c0,0,4.1-0.2,11.1-0.9c7.6-0.8,10.6-1.5,10.6-1.5V410
				c0,1.1-0.8,2.1-1.8,2.2l-2.2,0.2"/>
			<path class="st16" d="M401.2,410.7c-5-0.2-6.9,0.8-6.9,0.8v5.4c0,0,1.9-1,6.9-0.8c4.6,0.2,6.9-0.8,6.9-0.8v-5.4
				C408.1,409.9,405.8,410.9,401.2,410.7z"/>
			<text transform="matrix(1.0346 -0.114 0 1 396.1445 415.3926)" class="st12 st20 st21">АКВА</text>
			<text transform="matrix(1.0346 -0.1969 0 1 390.8183 427.3637)" class="st12 st20 st22">ХЕЛАТ</text>
			<g>
				<g>
					<path class="st13" d="M399.6,399.8l-3.9,0.4v2.5c0,1.1,0.8,1.9,1.8,1.8l3.9-0.4v-2.5C401.4,400.5,400.6,399.7,399.6,399.8z"/>
					<path class="st13" d="M402.1,402.2v1.7l2.7-0.3c0.7-0.1,1.3-0.8,1.3-1.5v-1.7l-2.7,0.3C402.6,400.8,402.1,401.5,402.1,402.2z"
						/>
					<path class="st13" d="M402.1,399.1v1.3l2.1-0.2c0.5-0.1,0.9-0.6,0.9-1.2v-1.3L403,398C402.5,398,402.1,398.5,402.1,399.1z"/>
				</g>
				<g>
					<path class="st12" d="M394.6,410.4v-1l-1.3,0.1c-0.8,0.1-1.5-0.6-1.5-1.5v-2.2l2.1-0.2c0.4,0,0.8,0.1,1.1,0.4
						c0.3-0.4,0.7-0.6,1.1-0.6l2.1-0.2v2.2c0,0.9-0.7,1.7-1.5,1.8l-1.3,0.1v1L394.6,410.4z M396.7,408.3c0.4,0,0.7-0.4,0.7-0.8v-1.4
						l-1.3,0.1c-0.4,0-0.7,0.4-0.7,0.8v1.4L396.7,408.3z M392.6,408c0,0.4,0.3,0.7,0.7,0.7l1.3-0.1v-1.4c0-0.4-0.3-0.7-0.7-0.7
						l-1.3,0.1V408z"/>
					<path class="st12" d="M398.5,410v-3.2c0-0.9,0.7-1.7,1.5-1.8l2.1-0.2v1.7c0,0.9-0.7,1.7-1.5,1.8l-1.3,0.1v1.6L398.5,410z
						 M400.6,407.3c0.4,0,0.7-0.4,0.7-0.8v-0.8l-1.3,0.1c-0.4,0-0.7,0.4-0.7,0.8v0.8L400.6,407.3z"/>
					<path class="st12" d="M404,409.4c-0.8,0.1-1.5-0.6-1.5-1.5v-1.6c0-0.9,0.7-1.7,1.5-1.8l2.1-0.2v1.7c0,0.9-0.7,1.7-1.5,1.8
						l-1.3,0.1c0,0.4,0.3,0.7,0.7,0.6l2.1-0.2v0.9L404,409.4z M404.6,406.8c0.4,0,0.7-0.4,0.7-0.8v-0.8l-1.3,0.1
						c-0.4,0-0.7,0.4-0.7,0.8v0.8L404.6,406.8z"/>
					<path class="st12" d="M409.2,408.8v-1.6l-1.3,0.1c-0.4,0-0.7,0.4-0.7,0.8v0.8l-0.8,0.1v-0.8c0-0.5,0.2-0.9,0.5-1.3
						c-0.3-0.3-0.5-0.7-0.5-1.2v-1.7l2.1-0.2c0.8-0.1,1.5,0.6,1.5,1.5v3.2L409.2,408.8z M407.2,405.8c0,0.4,0.3,0.7,0.7,0.7l1.3-0.1
						v-0.8c0-0.4-0.3-0.7-0.7-0.7l-1.3,0.1V405.8z"/>
				</g>
			</g>
		</g>
		<g>
			<path class="st12" d="M410,402.5c-0.3,0-0.6,0.3-0.6,0.7c0,0.4,0.3,0.7,0.6,0.7c0.3,0,0.6-0.3,0.6-0.7
				C410.7,402.9,410.4,402.5,410,402.5z M410.2,403.6l-0.1-0.2c0-0.1-0.1-0.1-0.1-0.1c0,0,0,0,0,0c0,0,0,0-0.1,0l0,0v0.3l-0.2,0
				v-0.8l0.3,0c0.1,0,0.1,0,0.2,0c0,0,0.1,0,0.1,0.1c0,0,0,0.1,0,0.1c0,0.1,0,0.1,0,0.2c0,0-0.1,0.1-0.1,0.1c0,0,0.1,0,0.1,0.1
				c0,0,0,0.1,0.1,0.1l0.1,0.2L410.2,403.6z"/>
			<path class="st12" d="M410.2,403C410.2,403,410.2,403,410.2,403C410.2,403,410.1,402.9,410.2,403c-0.1-0.1-0.1-0.1-0.2-0.1
				l-0.1,0v0.2l0.1,0c0.1,0,0.1,0,0.1,0C410.2,403.1,410.2,403.1,410.2,403C410.2,403.1,410.2,403.1,410.2,403z"/>
		</g>
	</g>
	<g>
		<path class="st12" d="M417.7,157.6L417.7,157.6l-1.2,2.1l-1.2,2.1v0h0c-0.2,0.3-0.5,0.5-0.8,0.5c-0.4,0-0.7-0.2-0.8-0.5h0
			l-1.2-2.1l-1.2-2.1c-0.1-0.1-0.1-0.3-0.1-0.5c0-0.5,0.4-1,1-1h2.5h2.5c0.5,0,1,0.4,1,1C417.8,157.3,417.8,157.4,417.7,157.6
			L417.7,157.6z"/>
		<path class="st10" d="M404.7,77.4L366,38.8c-15.1-15.1-39.6-15.1-54.7,0l-38.6,38.6c-15.1,15.1-15.1,39.6,0,54.7l38.6,38.6
			c15.1,15.1,39.6,15.1,54.7,0l38.6-38.6C419.8,117,419.8,92.5,404.7,77.4z"/>
		<path class="st10" d="M360.1,217v3.4c0,1.7,1.4,3.1,3.1,3.1l0,0h3.7"/>
		<path class="st10" d="M369.3,212.2h-6.2c-1.7,0-3.1,1.4-3.1,3.1l0,0v4"/>
		<path class="st10" d="M369.1,212.2h6.2c1.7,0,3.1-1.4,3.1-3.1v-7.9v-42.9"/>
		<path class="st10" d="M373.7,245.4v-18.9c0-1.7-1.4-3.1-3.1-3.1l0,0h-3.7"/>
		<path class="st12" d="M257.9,90.4c-0.9,0-1.7,0.7-1.7,1.7c0,0.9,0.7,1.7,1.7,1.7c0.9,0,1.7-0.7,1.7-1.7
			C259.5,91.2,258.8,90.4,257.9,90.4z"/>
		<path class="st12" d="M261,69.4c-0.9,0-1.7,0.7-1.7,1.7c0,0.9,0.7,1.7,1.7,1.7c0.9,0,1.7-0.7,1.7-1.7
			C262.7,70.1,262,69.4,261,69.4z"/>
		<path class="st12" d="M363,213.7c-0.9,0-1.7,0.7-1.7,1.7c0,0.9,0.7,1.7,1.7,1.7c0.9,0,1.7-0.7,1.7-1.7
			C364.7,214.4,364,213.7,363,213.7z"/>
		<path class="st12" d="M370.8,225.5c-0.9,0-1.7,0.7-1.7,1.7c0,0.9,0.7,1.7,1.7,1.7c0.9,0,1.7-0.7,1.7-1.7
			C372.4,226.2,371.7,225.5,370.8,225.5z"/>
		<path class="st12" d="M411.4,84.9c-0.9,0-1.7,0.7-1.7,1.7c0,0.9,0.7,1.7,1.7,1.7c0.9,0,1.7-0.7,1.7-1.7
			C413.1,85.6,412.3,84.9,411.4,84.9z"/>
		<path class="st13" d="M379.3,160.6c-0.5,0.5-1.4,0.5-1.9,0l-1.3-1.3c-0.5-0.5-0.5-1.4,0-1.9l1.3-1.3c0.5-0.5,1.4-0.5,1.9,0
			l1.3,1.3c0.5,0.5,0.5,1.4,0,1.9L379.3,160.6z"/>
		<path class="st23" d="M379.7,161.7c-0.8,0.8-2.1,0.8-2.8,0l-2-2c-0.8-0.8-0.8-2,0-2.8l2-2c0.8-0.8,2.1-0.8,2.8,0l2,2
			c0.8,0.8,0.8,2.1,0,2.8L379.7,161.7z"/>
		<path class="st12" d="M250.1,139.3L250.1,139.3l1.7,0.5l1.7,0.5v0l0,0c0.2,0.1,0.5,0,0.7-0.2c0.2-0.2,0.2-0.4,0.2-0.7l0,0
			l-0.5-1.7l-0.5-1.7c0-0.1-0.1-0.2-0.2-0.3c-0.3-0.3-0.7-0.3-1,0l-1.3,1.3l-1.3,1.3c-0.3,0.3-0.3,0.7,0,1
			C249.9,139.2,250,139.3,250.1,139.3L250.1,139.3z"/>
		<path class="st24" d="M424.9,125.1h6.2c1.7,0,3.1-1.4,3.1-3.1l0,0V89.8"/>
		<path class="st24" d="M423.6,125h-6.2c-1.7,0-3.1,1.4-3.1,3.1l0,0v32.2"/>
		<line class="st10" x1="248.6" y1="54.3" x2="296.5" y2="54.3"/>
		<path class="st24" d="M434.2,95.8v-6.2c0-1.7-1.4-3.1-3.1-3.1l0,0H412"/>
		<path class="st24" d="M264.7,67.7h-3.7l0,0c-1.7,0-3.1,1.4-3.1,3.1l0,63.1v6.2c0,1.7-1.4,3.1-3.1,3.1l0,0h-51.2"/>
		<path class="st10" d="M271.5,54.3v10.4c0,1.7-1.4,3.1-3.1,3.1l0,0h-3.7"/>
		<path class="st12" d="M429.1,93.1c0.5,0.1,1.1,0.3,1.6,0.3c1.2,0,2.4,0,3.7,0c0.2,0,0.2,0,0.2-0.2c0-1.1,0-2.2,0-3.3
			c0-0.3,0-0.5,0-0.8c0-0.2,0-0.3-0.1-0.5c-0.1-0.3-0.2-0.5-0.3-0.7c-0.3-0.5-0.7-0.9-1.3-1.3c-0.5-0.3-1-0.4-1.5-0.4
			c-0.6,0-1.1,0-1.7,0c-0.7,0-1.4,0-2.1,0c-0.2,0-0.2,0-0.2,0.2c0,0.6,0.1,4.3,0.3,5l0,0C427.6,91.4,428,92.8,429.1,93.1z"/>
		<path class="st12" d="M274.3,47.9c0,0.9-0.7,1.6-1.6,1.6h-2.3c-0.9,0-1.6-0.7-1.6-1.6v-2.3c0-0.9,0.7-1.6,1.6-1.6h2.3
			c0.9,0,1.6,0.7,1.6,1.6V47.9z"/>
		<path class="st13" d="M295.8,57.8L295.8,57.8l-2.3-1.3l-2.3-1.3h0v0c-0.3-0.2-0.5-0.5-0.5-0.9c0-0.4,0.2-0.7,0.5-0.9v0l2.3-1.3
			l2.3-1.3c0.2-0.1,0.3-0.1,0.5-0.1c0.6,0,1,0.5,1,1v2.6v2.6c0,0.6-0.5,1-1,1C296.1,57.9,295.9,57.9,295.8,57.8L295.8,57.8z"/>
		<path class="st12" d="M425.4,122.3L425.4,122.3l-1.7,1l-1.7,1l0,0v0c-0.2,0.1-0.4,0.4-0.4,0.7c0,0.3,0.2,0.5,0.4,0.7v0l1.7,1
			l1.7,1c0.1,0.1,0.2,0.1,0.4,0.1c0.4,0,0.8-0.3,0.8-0.8v-2V123c0-0.4-0.3-0.8-0.8-0.8C425.7,122.2,425.5,122.3,425.4,122.3
			L425.4,122.3z"/>
		<path class="st12" d="M269.1,55.7L269.1,55.7l0.9-1.5l0.9-1.5v0h0c0.1-0.2,0.3-0.3,0.6-0.3c0.3,0,0.5,0.1,0.6,0.3h0l0.9,1.5
			l0.9,1.5c0.1,0.1,0.1,0.2,0.1,0.4c0,0.4-0.3,0.7-0.7,0.7h-1.8h-1.8c-0.4,0-0.7-0.3-0.7-0.7C269,55.9,269,55.8,269.1,55.7
			L269.1,55.7z"/>
		<path class="st10" d="M243.2,54.3c0,2.7,2.2,4.8,4.8,4.8c2.7,0,4.8-2.2,4.8-4.8c0-2.7-2.2-4.8-4.8-4.8
			C245.3,49.5,243.2,51.6,243.2,54.3z M245.3,54.3c0-1.5,1.2-2.7,2.7-2.7c1.5,0,2.7,1.2,2.7,2.7c0,1.5-1.2,2.7-2.7,2.7
			C246.5,57,245.3,55.8,245.3,54.3z"/>
		<path class="st12" d="M246.4,54.3c0,0.9,0.7,1.6,1.6,1.6c0.9,0,1.6-0.7,1.6-1.6c0-0.9-0.7-1.6-1.6-1.6
			C247.1,52.7,246.4,53.4,246.4,54.3z"/>
		<path class="st12" d="M374.6,247.6c-0.5,0.5-1.3,0.5-1.8,0l-1.3-1.3c-0.5-0.5-0.5-1.3,0-1.8l1.3-1.3c0.5-0.5,1.3-0.5,1.8,0
			l1.3,1.3c0.5,0.5,0.5,1.3,0,1.8L374.6,247.6z"/>
		<path class="st10" d="M375,248.7c-0.7,0.7-1.9,0.7-2.7,0l-1.9-1.9c-0.7-0.7-0.7-1.9,0-2.7l1.9-1.9c0.7-0.7,1.9-0.7,2.7,0l1.9,1.9
			c0.7,0.7,0.7,1.9,0,2.7L375,248.7z"/>
		<g>
			<g>
				<path class="st13" d="M319.6,106.8h-4.9v2.8c0,1.2,1,2.3,2.3,2.3h4.9v-2.8C321.8,107.9,320.8,106.8,319.6,106.8z"/>
				<path class="st13" d="M322.4,109.8v2.1h3.7c0.9,0,1.7-0.8,1.7-1.7v-2.1h-3.7C323.1,108.1,322.4,108.8,322.4,109.8z"/>
				<path class="st13" d="M322.4,106.3v1.3h2.2c0.6,0,1-0.5,1-1v-1.3h-2.2C322.8,105.3,322.4,105.7,322.4,106.3z"/>
			</g>
			<path class="st12" d="M318.5,119.3v-1.2h-1.8c-1.2,0-2.1-0.9-2.1-2.1v-2.9h2.9c0.6,0,1.1,0.2,1.5,0.7c0.4-0.4,1-0.7,1.5-0.7h2.9
				v2.9c0,1.2-0.9,2.1-2.1,2.1h-1.8v1.2H318.5z M321.4,116.9c0.5,0,1-0.4,1-1v-1.8h-1.8c-0.5,0-1,0.4-1,1v1.8H321.4z M315.7,116
				c0,0.5,0.4,1,1,1h1.8v-1.8c0-0.5-0.4-1-1-1h-1.8V116z"/>
			<path class="st12" d="M324.3,119.3v-4.1c0-1.2,0.9-2.1,2.1-2.1h2.9v2.1c0,1.2-0.9,2.1-2.1,2.1h-1.8v2H324.3z M327.2,116.1
				c0.5,0,1-0.4,1-1v-1h-1.8c-0.5,0-1,0.4-1,1v1H327.2z"/>
			<path class="st12" d="M332.1,119.3c-1.2,0-2.1-0.9-2.1-2.1v-2c0-1.2,0.9-2.1,2.1-2.1h2.9v2.1c0,1.2-0.9,2.1-2.1,2.1h-1.8
				c0,0.5,0.5,0.9,1,0.9h2.9v1.1H332.1z M333,116.1c0.5,0,1-0.4,1-1v-1h-1.8c-0.5,0-1,0.4-1,1v1H333z"/>
			<path class="st12" d="M339.7,119.3v-2h-1.8c-0.5,0-1,0.4-1,1v1h-1.1v-1c0-0.6,0.2-1.1,0.7-1.5c-0.4-0.4-0.7-0.9-0.7-1.5v-2.1h2.9
				c1.2,0,2.1,0.9,2.1,2.1v4.1H339.7z M336.9,115.2c0,0.5,0.4,1,1,1h1.8v-1c0-0.5-0.4-1-1-1h-1.8V115.2z"/>
		</g>
		<g>
			<g>
				<path class="st13" d="M365.6,104h-4.9v2.8c0,1.2,1,2.3,2.3,2.3h4.9v-2.8C367.9,105,366.9,104,365.6,104z"/>
				<path class="st13" d="M368.4,107v2.1h3.7c0.9,0,1.7-0.8,1.7-1.7v-2.1h-3.7C369.2,105.2,368.4,106,368.4,107z"/>
				<path class="st13" d="M368.4,103.4v1.3h2.2c0.6,0,1-0.5,1-1v-1.3h-2.2C368.9,102.4,368.4,102.9,368.4,103.4z"/>
			</g>
			<path class="st12" d="M364.5,116.4v-1.2h-1.8c-1.2,0-2.1-0.9-2.1-2.1v-2.9h2.9c0.6,0,1.1,0.2,1.5,0.7c0.4-0.4,1-0.7,1.5-0.7h2.9
				v2.9c0,1.2-0.9,2.1-2.1,2.1h-1.8v1.2H364.5z M367.5,114.1c0.5,0,1-0.4,1-1v-1.8h-1.8c-0.5,0-1,0.4-1,1v1.8H367.5z M361.7,113.1
				c0,0.5,0.4,1,1,1h1.8v-1.8c0-0.5-0.4-1-1-1h-1.8V113.1z"/>
			<path class="st12" d="M370.3,116.4v-4.1c0-1.2,0.9-2.1,2.1-2.1h2.9v2.1c0,1.2-0.9,2.1-2.1,2.1h-1.8v2H370.3z M373.3,113.3
				c0.5,0,1-0.4,1-1v-1h-1.8c-0.5,0-1,0.4-1,1v1H373.3z"/>
			<path class="st12" d="M378.2,116.4c-1.2,0-2.1-0.9-2.1-2.1v-2c0-1.2,0.9-2.1,2.1-2.1h2.9v2.1c0,1.2-0.9,2.1-2.1,2.1h-1.8
				c0.1,0.5,0.5,0.9,1,0.9h2.9v1.1H378.2z M379.1,113.3c0.5,0,1-0.4,1-1v-1h-1.8c-0.5,0-1,0.4-1,1v1H379.1z"/>
			<path class="st12" d="M385.8,116.4v-2H384c-0.5,0-1,0.4-1,1v1h-1.1v-1c0-0.6,0.2-1.1,0.7-1.5c-0.4-0.4-0.7-0.9-0.7-1.5v-2.1h2.9
				c1.2,0,2.1,0.9,2.1,2.1v4.1H385.8z M383,112.3c0,0.5,0.4,1,1,1h1.8v-1c0-0.5-0.4-1-1-1H383V112.3z"/>
		</g>
		<g>
			<line class="st10" x1="393.3" y1="108.9" x2="409.2" y2="108.9"/>
			<line class="st25" x1="394.6" y1="111.1" x2="406.4" y2="111.1"/>
			<line class="st25" x1="393.7" y1="113.3" x2="405.4" y2="113.3"/>
			<line class="st25" x1="394.6" y1="115.5" x2="408.2" y2="115.5"/>
		</g>
		<g>
			<line class="st10" x1="274.6" y1="108.9" x2="289.1" y2="108.9"/>
			<line class="st26" x1="275.9" y1="111.1" x2="287.1" y2="111.1"/>
			<line class="st26" x1="275" y1="113.3" x2="286.2" y2="113.3"/>
			<line class="st26" x1="275.9" y1="115.5" x2="288.9" y2="115.5"/>
		</g>
		<g>
			<g>
				<path class="st16" d="M340.7,85.4c0.8-0.7,2-1.8,2.7-2.3c1.9-1.5,4.6-2.7,4.6-2.7s-0.7-2.1-1-3.2c-0.3-1.1-3.8-1.7-4.8-6.9
					c-1-5.2,1.9-7.6,3.3-11.3c1.4-3.7,2.2-4.9,3.8-6.3c1.6-1.5,2-1.6,3.3-1.9c1.7-0.3,2.8,0.7,4.1,1.5c1.3,0.9,3,2.7,4.2,3.7
					c1.2,1,1.6,2.2,2,2.8c0.3,0.7,1.5,1.1,3.6,3.9c2.1,2.8,3.6,5.8,4.9,6.6c1.3,0.9,2.7,2,3.4,3c0.7,1.1,1.2,2.1,2,2.3
					c0.8,0.2,2.6-0.8,3.2,0c0.5,0.8,6.6,4.7,7.4,5.4c0.9,0.7,2.5,6.5,2.8,12.1c0.3,5.6-1.9,30.6-2.2,34.9c-0.4,4.3-0.5,8.1-0.7,9.1
					c-0.1,1-1.8,1.8-4.4,1.8c-2.6,0-8.6,0.4-13.9,1.5c-5.2,1.1-9.6,0.9-10.8,1.2c-1.2,0.4-7.5-2.7-11.8-4.5"/>
				<path class="st16" d="M352.4,53.5c0,0,1-1,1.7,0c0.7,1,1.5,1.7,1.3,3.5c-0.2,1.8-0.7,3.7-0.4,4.3c0.2,0.6-1.1-2.4-1.4-4.1
					C353.3,55.4,353.1,53.7,352.4,53.5z"/>
				<path class="st16" d="M347.4,65.3c0,0,2.5,6,6.5,9.5c4,3.5,10.2,8.1,13.1,9.5c2.9,1.4,7,2.9,9.1,4.2"/>
				<path class="st16" d="M363.6,60.4c0,0,2.5,3.4,2.6,6.5c0.1,3.1,1.9,6.6,3.1,8.4c1.2,1.8,2.9,3.5,5.4,4.6
					c2.5,1.2,4.4,1.7,7.2,2.8c2.8,1,4.4,1.2,5.7,2.5c1.2,1.4,1.9,1.2,2.1,2.8"/>
				<path class="st16" d="M348,80.4c0,0,1.3,3.8,2.8,6"/>
				<path class="st16" d="M355,61.2c0,0,4.2,7.5,5.1,10.5c0.6,1.8-0.3-3,0-6c0.2-3-0.4-3.6-0.9-5.2c-0.6-1.6-2.7-4-2.7-4"/>
				<path class="st16" d="M357,85.2c0,0,0.5,3.2-2.7,3.3c-3.2,0.1-5.8,0.8-9.1-0.2"/>
				<path class="st16" d="M383.6,85.2c0,0,0.1,1.5-2.1,2.4"/>
				<path class="st16" d="M359,89.5c0,0,5.6-0.1,8.7,1c3.1,1.2,5,1,7.5,0.4"/>
				<path class="st16" d="M294.1,138.7c1.5,2.6,15.8,7.7,17.4,8c1.6,0.3,4.9,1,10,0c5.1-1,11.9-2.3,16.3-2.5
					c4.4-0.1,7.8-2.1,8.4-3.4c0.6-1.3-0.1-19-0.8-30.7c-0.7-11.7-1.2-18.3-1.3-18.8c-0.2-0.5,1.6-2.3,1.2-3.9
					c-0.4-1.6-5.2-2.2-6.4-2.8c-1.2-0.7-4.6-4.4-4.6-4.4s0.7-4.6,0-6.6c-0.7-2-0.9-5-0.7-6.7c0.2-1.7-1-8.5-2-10.5
					c-1-2-2.9-7.8-3.7-8.9c-0.8-1.1-2-5.9-6.5-4.1c-4.5,1.7-6.8,4.5-9,7.2c-2.2,2.7-5.9,7.6-7.2,11.1c-1.3,3.5-4.2,9.5-5.6,11.9
					c-1.3,2.3-2.2,9.2-3.7,9.7c-1.5,0.4-3.9,2.6-3.6,3.6c0.3,0.9,1.3,2.3,0.8,4.5c-0.5,2.2,0.1,8.3,0.2,11.2
					C293.4,105.5,291.3,134,294.1,138.7z"/>
				<path class="st16" d="M322.1,45.6c1.8-0.1,3.3-0.2,2.4,2.9c-0.9,3.1-2.2,7.1-2.8,9.5c-0.7,2.4-1.2-2.2-1.7-5.7
					C319.6,48.7,319.2,45.7,322.1,45.6z"/>
				<path class="st16" d="M321,58.7c0,0,0.6,5,1.1,7.5c0.5,2.5,1.9,5.9,1.9,5.9s2.2-3.3,2.4-8.4c0.2-5.1-0.5-8.4-0.5-8.4"/>
				<path class="st16" d="M315.9,50.8c-0.3,0-3.5,6-4.9,11.4c-1.4,5.4-2.4,9.9-3.3,12.1c-0.9,2.2-1.1,6-3.3,7.8
					c-2.2,1.8-3.6,3.7-4.6,4.3"/>
				<path class="st16" d="M295,87.6c0,0,4-1.8,8.5-0.6c4.5,1.2,5.5,1.6,7.4,0.6c1.9-1,0.2-0.2,3,2c2.8,2.1,11.9,2.2,16.8,1.9
					c4.8-0.3,8,0.3,10.2-1"/>
				<path class="st16" d="M327.7,65.3c0,0,0.7,4.5,1.2,7.3c0.5,2.7,0.9,5.1,0.7,7.4c-0.2,2.3,0.3,4.1,2.4,5.2c2.1,1.2,5.6,2.6,6.8,3
					"/>
				<path class="st16" d="M317.9,55.6c0,0,0.3,15.8,0.6,19c0.3,3.2-1.2,5.2-2.1,7.2c-0.9,2-1.3,3.9-0.9,4.7"/>
				<path class="st16" d="M297,94.1c0,0-0.3,20.9,0.7,27.6c1.1,6.7,3.4,12.9,6,16c2.6,3.2,5.7,6.4,7.4,7.1c1.7,0.7,6.1,1.3,11.3-1.3
					c5.2-2.7,6.1-3.4,9.5-2.6c3.4,0.8,10,0.8,11.5-0.4"/>
				<path class="st16" d="M346.4,131.5c0,0,6.3,5.4,8.2,6.6c1.9,1.2,2.3,1.5,4.7,1.2c2.4-0.3,7-1.5,9.2-2.5c2.2-1,7.6-2.2,14-0.7
					c2.2,0.5,4,0.5,4,0.5"/>
			</g>
			<path class="st12" d="M316.3,46.4c0,0,1-0.6,1.9,0.5c0.9,1.1,1.5,1.8,1.5,1.8s-0.4-3.1,2.4-3.1c2.7,0,2.9,0.2,2.7,1.5
				c-0.3,1.4-0.3,1.5-0.3,1.5s0.3-0.9,1.4-1.1c1.1-0.2,2.2,0.8,2.2,0.8s-1.6-3.7-2.8-4.4c-1.2-0.7-2.6-1.1-4.1-0.5
				C319.7,44.2,317.1,45.7,316.3,46.4z"/>
			<path class="st12" d="M348.3,53.6c0,0,1.7-1.1,2.4-0.4c0.7,0.7,1.9,0.4,1.9,0.4s-0.4-0.4,0.3-0.6c0.7-0.2,1.1,0.3,1.3,0.7
				c0.2,0.4,0.4-1.2,1.2-0.7c0.8,0.5,2.1-0.1,2.1-0.1s-2.3-2.1-3.6-2.1c-1.3,0-2.4,0.1-3.2,0.7C350,52.1,348.7,53.2,348.3,53.6z"/>
		</g>
	</g>
	<g>
		<path class="st10" d="M242.3,236.7H171c-1.4,0-2.5-1.1-2.5-2.5l0,0V222"/>
		<path class="st12" d="M166.8,221.9c-0.1,0.3-0.2,0.6-0.2,0.8c0,0.6,0,1.3,0,1.9c0,0.1,0,0.1,0.1,0.1c0.6,0,1.1,0,1.7,0
			c0.1,0,0.3,0,0.4,0c0.1,0,0.2,0,0.2,0c0.1,0,0.3-0.1,0.4-0.2c0.3-0.2,0.5-0.4,0.6-0.7c0.1-0.2,0.2-0.5,0.2-0.8c0-0.3,0-0.6,0-0.9
			c0-0.4,0-0.7,0-1.1c0-0.1,0-0.1-0.1-0.1c-0.3,0-2.2,0-2.6,0.2l0,0C167.6,221.1,166.9,221.3,166.8,221.9z"/>
		<path class="st12" d="M241.9,234.1c-1.4,0-2.5,1.1-2.5,2.5c0,1.4,1.1,2.5,2.5,2.5c1.4,0,2.5-1.1,2.5-2.5
			C244.4,235.3,243.3,234.1,241.9,234.1z M241.9,235.3c0.8,0,1.4,0.6,1.4,1.4c0,0.8-0.6,1.4-1.4,1.4c-0.8,0-1.4-0.6-1.4-1.4
			C240.5,235.9,241.1,235.3,241.9,235.3z"/>
		<path class="st12" d="M62.3,154.7c0,0.8,0.6,1.4,1.4,1.4c0.8,0,1.4-0.6,1.4-1.4c0-0.8-0.6-1.4-1.4-1.4
			C62.9,153.3,62.3,153.9,62.3,154.7z"/>
		<path class="st12" d="M62.3,148.6c0,0.8,0.6,1.4,1.4,1.4c0.8,0,1.4-0.6,1.4-1.4c0-0.8-0.6-1.4-1.4-1.4
			C62.9,147.3,62.3,147.9,62.3,148.6z"/>
		<path class="st12" d="M223.5,211.1L223.5,211.1l-1.1-1.9l-1.1-1.9v0h0c-0.1-0.2-0.4-0.4-0.7-0.4c-0.3,0-0.6,0.2-0.7,0.4h0
			l-1.1,1.9l-1.1,1.8c-0.1,0.1-0.1,0.3-0.1,0.4c0,0.5,0.4,0.9,0.9,0.9h2.1h2.1c0.5,0,0.9-0.4,0.9-0.9
			C223.6,211.4,223.6,211.2,223.5,211.1L223.5,211.1z"/>
		<g>
			<line class="st10" x1="97.5" y1="167.4" x2="81.9" y2="167.4"/>
			<line class="st27" x1="96.2" y1="169.4" x2="84.7" y2="169.4"/>
			<line class="st27" x1="97.1" y1="171.2" x2="85.7" y2="171.2"/>
			<line class="st27" x1="96.2" y1="173.1" x2="82.9" y2="173.1"/>
		</g>
		<g>
			<line class="st14" x1="200.9" y1="167.4" x2="186.4" y2="167.4"/>
			<line class="st15" x1="199.6" y1="169.4" x2="188.4" y2="169.4"/>
			<line class="st15" x1="200.5" y1="171.2" x2="189.3" y2="171.2"/>
			<line class="st15" x1="199.6" y1="173.1" x2="186.7" y2="173.1"/>
		</g>
		<path class="st28" d="M77.6,118.1c0-5.1,0.1-10.3,0.1-15.4c0-1.5,0-1.6,1.5-1.6c18.1-0.1,36.2-0.2,54.3-0.2c2.7,0,12,0.2,14.7,0.2
			c4.9,0,9.7,0.6,14.4,1.9c4.9,1.3,9.5,3.2,13.9,5.7c5.7,3.3,10.7,7.4,15,12.3c5.1,5.9,8.9,12.5,11.3,19.9c1.6,5,2.6,10,2.8,15.2
			c0.1,2.9,0.1,5.8,0.1,8.8c0,2,0,3.9,0,5.9c0,14.6,0,29.1,0,43.7c0,2.1,0,4.1,0,6.2c0,1.6,0,1.6-1.6,1.6c-10.9,0-28.6,0-39.5,0
			c-4.6,0-9.1,0-13.7,0c-4.9,0-9.8,0-14.7,0c-3,0-6.1-0.1-9-0.6c-3.3-0.5-6.6-1.4-9.8-2.3c-5.8-1.7-11-4.6-15.8-8.1
			c-5.9-4.3-10.9-9.6-14.8-15.8c-3.7-5.9-6.7-12.4-8.1-19.3c-0.9-4.8-0.9-9.7-0.9-14.6c-0.1-10.1-0.1-20.2,0-30.4
			C77.6,126.8,77.6,122.5,77.6,118.1z"/>
		<path class="st13" d="M203.6,139.4c-2.1,0-3.8,1.7-3.8,3.8c0,2.1,1.7,3.8,3.8,3.8c2.1,0,3.8-1.7,3.8-3.8
			C207.3,141.1,205.7,139.4,203.6,139.4z"/>
		<path class="st24" d="M220.6,207.4v-37.6c0-1.5-1.2-2.7-2.7-2.7l0,0h-10.2"/>
		<path class="st24" d="M90.6,268.5V208c0-1.5-1.2-2.7-2.7-2.7l0,0H83h-4.9l0,0c-1.5,0-2.7-1.2-2.7-2.7v-5.4v-5.4
			c0-1.5,1.2-2.7,2.7-2.7l0,0H83"/>
		<path class="st12" d="M84.5,189.1c0-0.8-0.7-1.5-1.5-1.5c-0.8,0-1.5,0.7-1.5,1.5c0,0.8,0.7,1.5,1.5,1.5
			C83.8,190.5,84.5,189.9,84.5,189.1z"/>
		<path class="st12" d="M92,268.5c0-0.8-0.7-1.5-1.5-1.5c-0.8,0-1.5,0.7-1.5,1.5c0,0.8,0.7,1.5,1.5,1.5C91.4,270,92,269.3,92,268.5z
			"/>
		<path class="st10" d="M205.6,106.6v3c0,1.5-1.2,2.7-2.7,2.7l0,0h-3.3"/>
		<path class="st10" d="M197.4,102.3h5.4c1.5,0,2.7,1.2,2.7,2.7l0,0v3.5"/>
		<path class="st29" d="M197.6,102.3h-5.4c-1.5,0-2.7-1.2-2.7-2.7v-6.9v-2.6"/>
		<path class="st10" d="M193.6,123.4V115c0-1.5,1.2-2.7,2.7-2.7l0,0h3.3"/>
		<path class="st12" d="M203.6,107.2c0,1.1,0.9,2,2,2c1.1,0,2-0.9,2-2c0-1.1-0.9-2-2-2C204.5,105.2,203.6,106.1,203.6,107.2z"/>
		<path class="st12" d="M210.2,167.1c0,1.1,0.9,2,2,2c1.1,0,2-0.9,2-2c0-1.1-0.9-2-2-2C211.1,165.1,210.2,166,210.2,167.1z"/>
		<path class="st10" d="M189,123.4c0,2.5,2.1,4.6,4.6,4.6c2.5,0,4.6-2.1,4.6-4.6c0-2.5-2.1-4.6-4.6-4.6
			C191,118.8,189,120.9,189,123.4z"/>
		<path class="st10" d="M191.5,123.4c0,1.2,0.9,2.1,2.1,2.1c1.2,0,2.1-0.9,2.1-2.1c0-1.2-0.9-2.1-2.1-2.1
			C192.4,121.3,191.5,122.2,191.5,123.4z"/>
		<path class="st12" d="M188.4,87.4l-1.5,1.5c-0.6,0.6-0.6,1.6,0,2.2l1.5,1.5c0.6,0.6,1.6,0.6,2.2,0l1.5-1.5c0.6-0.6,0.6-1.6,0-2.2
			l-1.5-1.5C190,86.8,189,86.8,188.4,87.4z M188.9,88.6c0.3-0.3,0.9-0.3,1.2,0l0.8,0.8c0.3,0.3,0.3,0.9,0,1.2l-0.8,0.8
			c-0.3,0.3-0.9,0.3-1.2,0l-0.8-0.8c-0.3-0.3-0.3-0.9,0-1.2L188.9,88.6z"/>
		<path class="st12" d="M203,168.2c0,0.9,0.7,1.6,1.6,1.6h2.2c0.9,0,1.6-0.7,1.6-1.6V166c0-0.9-0.7-1.6-1.6-1.6h-2.2
			c-0.9,0-1.6,0.7-1.6,1.6V168.2z"/>
		<path class="st12" d="M76.9,202.8L76.9,202.8l0.8-1.4l0.8-1.4v0h0c0.1-0.2,0.3-0.3,0.5-0.3c0.2,0,0.4,0.1,0.5,0.3l0,0l0.8,1.4
			l0.8,1.4c0.1,0.1,0.1,0.2,0.1,0.3c0,0.4-0.3,0.6-0.6,0.6l-1.6,0l-1.6,0c-0.4,0-0.6-0.3-0.6-0.6C76.8,203,76.9,202.9,76.9,202.8
			L76.9,202.8z"/>
		<path class="st10" d="M61,128.8v20.3c0,1.5,1.2,2.7,2.7,2.7"/>
		<path class="st10" d="M77.8,163.6h-8.8c-1.5,0-2.7-1.2-2.7-2.7v-3.3"/>
		<path class="st10" d="M66.4,160.3v-5.7c0-1.5-1.2-2.7-2.7-2.7"/>
		<path class="st10" d="M79.2,163.6c0-0.8-0.6-1.4-1.4-1.4c-0.8,0-1.4,0.6-1.4,1.4c0,0.8,0.6,1.4,1.4,1.4
			C78.6,165,79.2,164.3,79.2,163.6z"/>
		<path class="st10" d="M81.2,163.6c0-1.9-1.5-3.4-3.4-3.4c-1.9,0-3.4,1.5-3.4,3.4c0,1.9,1.5,3.4,3.4,3.4
			C79.7,166.9,81.2,165.4,81.2,163.6z"/>
		<path class="st12" d="M58.9,128.9L58.9,128.9l0.8,1.4l0.8,1.4v0h0c0.1,0.2,0.3,0.3,0.5,0.3c0.2,0,0.4-0.1,0.5-0.3h0l0.8-1.4
			l0.8-1.3c0.1-0.1,0.1-0.2,0.1-0.3c0-0.3-0.3-0.6-0.6-0.6H61h-1.6c-0.3,0-0.6,0.3-0.6,0.6C58.8,128.7,58.8,128.8,58.9,128.9
			L58.9,128.9z"/>
		<line class="st16" x1="141.3" y1="115.2" x2="142.5" y2="113.4"/>
		<g>
			<polyline class="st16" points="97.8,133.3 97.8,127.5 99.3,124 104.6,120.6 113.9,117.8 126.5,115.7 141.3,115.2 141.3,124.9 			
				"/>
			<line class="st16" x1="126.5" y1="115.7" x2="126.5" y2="125.5"/>
			<line class="st16" x1="113.9" y1="117.8" x2="114.1" y2="127.1"/>
			<line class="st16" x1="104.6" y1="120.6" x2="104.6" y2="129.5"/>
			<line class="st16" x1="99.3" y1="124" x2="99.3" y2="131.9"/>
			<polyline class="st16" points="171.5,131.5 171.5,125.5 169.4,121.9 163.8,119 153.9,116.1 149.1,115.7 149.1,125.4 			"/>
			<line class="st16" x1="153.9" y1="116.1" x2="153.9" y2="126"/>
			<line class="st16" x1="163.8" y1="119" x2="164.1" y2="128.4"/>
			<line class="st16" x1="169.4" y1="121.9" x2="169.9" y2="130.6"/>
			<polyline class="st16" points="149.1,121 153.9,121.5 164,124 169.7,126.6 171.5,128.4 			"/>
			<polyline class="st16" points="97.8,130 99.3,128.4 104.6,125.3 114,122.8 126.5,121 141.3,120.6 142.5,119.8 			"/>
			<polygon class="st16" points="148.3,125.3 162.3,157.4 164,157.4 149.5,125.5 			"/>
			<polyline class="st16" points="149.1,115.7 149.1,114.1 163.8,146.1 166.3,144.9 198.3,199.7 198.3,201.2 			"/>
			<polyline class="st16" points="142.5,125 142.5,113.4 155.4,146.1 159,144.4 187.8,198.9 187.8,201.6 			"/>
			<line class="st16" x1="145" y1="119.8" x2="145.3" y2="129"/>
			<line class="st16" x1="149.4" y1="131" x2="149.4" y2="140"/>
			<line class="st16" x1="155.4" y1="146.1" x2="155.1" y2="154.2"/>
			<line class="st16" x1="159" y1="144.4" x2="159" y2="157.5"/>
			<line class="st16" x1="163.8" y1="146.1" x2="164" y2="157.4"/>
			<line class="st16" x1="166.3" y1="144.9" x2="166.3" y2="157.4"/>
			<line class="st16" x1="151" y1="128.7" x2="151.4" y2="119"/>
			<line class="st16" x1="155.7" y1="139.1" x2="156.1" y2="129.3"/>
			<line class="st16" x1="165.1" y1="156.1" x2="165.4" y2="169.2"/>
			<line class="st16" x1="185.1" y1="193.8" x2="185.1" y2="209.1"/>
			<line class="st16" x1="195.1" y1="194.2" x2="195.1" y2="209.8"/>
			<line class="st16" x1="171.8" y1="169.9" x2="171.8" y2="182.3"/>
			<line class="st16" x1="178.9" y1="183.4" x2="178.9" y2="196.6"/>
			<line class="st16" x1="188.1" y1="182.3" x2="188.3" y2="197"/>
			<line class="st16" x1="173.2" y1="156.7" x2="173.2" y2="168.6"/>
			<line class="st16" x1="181.2" y1="170.3" x2="180.9" y2="183"/>
			<polygon class="st16" points="145.6,130 150.3,130 151,131.5 146.2,131.5 			"/>
			<polygon class="st16" points="148.7,137.7 153.7,137.7 154.4,139.4 149.3,139.4 			"/>
			<polygon class="st16" points="152.3,146.9 157.7,146.9 158.4,148.6 152.9,148.6 			"/>
			<polygon class="st16" points="174,186.7 180.6,186.7 181.5,188.3 174.8,188.3 			"/>
			<polygon class="st16" points="179.8,198.3 186.7,198.3 187.7,200.1 180.7,200.1 			"/>
			<polygon class="st16" points="185.5,209.8 192.6,209.4 193.4,211 186.3,211.5 			"/>
			<polygon class="st16" points="164.6,166 164.5,159.3 162.6,159.3 162.7,163.8 163.8,166 			"/>
			<polygon class="st16" points="163.8,166 169.7,165.8 170.6,167.5 164.7,167.8 			"/>
			<polygon class="st16" points="168.8,176.1 175.1,176.1 175.8,177.5 169.4,177.5 			"/>
			<polygon class="st16" points="172.4,183.5 172.4,177.5 169.5,177.5 			"/>
			<polygon class="st16" points="142.5,125 155.5,158.7 155.5,208.1 156.5,208.2 156.9,160.1 159.3,159.6 186,215.6 188.3,215.6 
				159.5,157.4 156.7,158.1 143.7,125 			"/>
			<g>
				<path class="st16" d="M162.8,167.1l-3.6-7.5l-2.3,0.5l-0.4,43.6c2.8-0.2,5.2-0.5,7.2-0.8L162.8,167.1z"/>
				<path class="st16" d="M164.7,171.1l0.6,31.5c5.3-0.9,7.1-1.8,7.1-1.8v-13.6L164.7,171.1z"/>
			</g>
			<polygon class="st16" points="162.8,167.1 163.8,206.9 165.4,207.4 164.7,171.1 			"/>
			<g>
				<path class="st16" d="M172.4,167.2V132c0,0-10.3-7.1-32.5-7.1c-22.2,0-42.8,4.6-42.8,10v65.6c0,0,6,4,39,4
					c8,0,14.4-0.3,19.4-0.7v-45.1l-13-33.7h1.2l13,33l2.9-0.7l7.7,0.1L172.4,167.2z"/>
				<polygon class="st16" points="168.8,176.1 168.8,176.1 168.8,176.1 				"/>
				<polygon class="st16" points="172.4,171 166.3,159.2 160.5,159.4 168.8,176.1 172.4,176.1 				"/>
			</g>
			<polygon class="st16" points="159.5,157.4 167.3,157.4 197.7,214.7 195.3,214.7 166.3,159.2 160.5,159.4 			"/>
			<path class="st16" d="M97.1,144.9c0,0,14.5-6.6,41.9-6.3"/>
			<path class="st16" d="M164.1,140.6c0,0,4,0.8,8.3,2.8"/>
			<path class="st16" d="M97.1,167.1c0,0,25.7-3.8,51.2-2.9"/>
			<path class="st16" d="M97.1,188.9c0,0,22.5,3.6,58.6,1.6"/>
			<path class="st16" d="M156.7,190.5c0,0,4.7-0.3,6.7-0.4"/>
			<path class="st16" d="M165.1,190c0,0,3.5-0.2,7.3-0.7"/>
			<line class="st16" x1="143" y1="176.8" x2="143" y2="191.1"/>
			<line class="st16" x1="99.7" y1="131.6" x2="99.7" y2="142"/>
			<line class="st16" x1="116.5" y1="165" x2="116.5" y2="177.5"/>
			<line class="st16" x1="116.5" y1="126.7" x2="116.5" y2="140"/>
			<line class="st16" x1="99.7" y1="177.5" x2="99.7" y2="189.3"/>
			<line class="st16" x1="116.5" y1="190.7" x2="116.5" y2="203.9"/>
			<path class="st16" d="M147.1,197.6c0,2.3-1.9,4.2-4.2,4.2c-2.3,0-4.2-1.9-4.2-4.2c0-2.3,1.9-4.2,4.2-4.2
				C145.3,193.5,147.1,195.3,147.1,197.6z"/>
			<path class="st16" d="M143.2,194.1c0,0.1-0.1,0.2-0.2,0.2c-0.1,0-0.2-0.1-0.2-0.2c0-0.1,0.1-0.2,0.2-0.2
				C143.1,193.9,143.2,194,143.2,194.1z"/>
			<path class="st16" d="M143.2,201.1c0,0.1-0.1,0.2-0.2,0.2c-0.1,0-0.2-0.1-0.2-0.2c0-0.1,0.1-0.2,0.2-0.2
				C143.1,200.9,143.2,201,143.2,201.1z"/>
			<circle class="st16" cx="146.5" cy="197.6" r="0.2"/>
			<path class="st16" d="M139.5,197.9c-0.1,0-0.2-0.1-0.2-0.2c0-0.1,0.1-0.2,0.2-0.2c0.1,0,0.2,0.1,0.2,0.2
				C139.7,197.8,139.6,197.9,139.5,197.9z"/>
			<path class="st16" d="M145.6,195.3c-0.1,0.1-0.2,0.1-0.3,0c-0.1-0.1-0.1-0.2,0-0.3c0.1-0.1,0.2-0.1,0.3,0
				C145.7,195.1,145.7,195.2,145.6,195.3z"/>
			<path class="st16" d="M140.7,200.3c-0.1,0.1-0.2,0.1-0.3,0c-0.1-0.1-0.1-0.2,0-0.3c0.1-0.1,0.2-0.1,0.3,0
				C140.8,200,140.8,200.2,140.7,200.3z"/>
			<path class="st16" d="M140.7,195c0.1,0.1,0.1,0.2,0,0.3c-0.1,0.1-0.2,0.1-0.3,0c-0.1-0.1-0.1-0.2,0-0.3
				C140.4,194.9,140.6,194.9,140.7,195z"/>
			<circle class="st16" cx="145.4" cy="200.1" r="0.2"/>
		</g>
		<g>
			<g>
				<path class="st13" d="M126.1,146.4l-6.2,0.1v3.6c0,1.6,1.3,2.9,2.9,2.8l6.2-0.1v-3.6C129,147.6,127.7,146.4,126.1,146.4z"/>
				<path class="st13" d="M129.7,150.1v2.7l4.7-0.1c1.2,0,2.2-1,2.2-2.2v-2.7l-4.7,0.1C130.7,147.9,129.7,148.9,129.7,150.1z"/>
				<path class="st13" d="M129.7,145.6v1.6l2.8-0.1c0.7,0,1.3-0.6,1.3-1.3v-1.6l-2.8,0.1C130.3,144.3,129.7,144.9,129.7,145.6z"/>
			</g>
			<path class="st12" d="M109,159.5v-1l-1.6,0c-1,0-1.8-0.8-1.8-1.8v-2.5l2.5-0.1c0.5,0,1,0.2,1.3,0.5c0.3-0.4,0.8-0.6,1.3-0.6
				l2.5-0.1v2.5c0,1-0.8,1.8-1.8,1.8l-1.5,0v1L109,159.5z M111.5,157.5c0.5,0,0.8-0.4,0.8-0.8v-1.5l-1.5,0c-0.5,0-0.8,0.4-0.8,0.8
				v1.5L111.5,157.5z M106.6,156.7c0,0.5,0.4,0.8,0.8,0.8l1.6,0V156c0-0.5-0.4-0.8-0.8-0.8l-1.5,0V156.7z"/>
			<path class="st12" d="M114,159.4v-3.5c0-1,0.8-1.8,1.8-1.8l2.5-0.1v1.8c0,1-0.8,1.8-1.8,1.8l-1.5,0v1.7L114,159.4z M116.5,156.7
				c0.5,0,0.8-0.4,0.8-0.8V155l-1.5,0c-0.5,0-0.8,0.4-0.8,0.8v0.8L116.5,156.7z"/>
			<path class="st12" d="M120.7,159.3c-1,0-1.8-0.8-1.8-1.8v-1.7c0-1,0.8-1.8,1.8-1.8l2.5-0.1v1.8c0,1-0.8,1.8-1.8,1.8l-1.5,0
				c0,0.4,0.4,0.7,0.8,0.7l2.5-0.1v1L120.7,159.3z M121.4,156.6c0.5,0,0.8-0.4,0.8-0.8v-0.8l-1.5,0c-0.5,0-0.8,0.4-0.8,0.8v0.8
				L121.4,156.6z"/>
			<path class="st12" d="M127.1,159.1v-1.7l-1.5,0c-0.5,0-0.8,0.4-0.8,0.8v0.9l-1,0v-0.9c0-0.5,0.2-1,0.6-1.3
				c-0.4-0.3-0.6-0.8-0.6-1.3v-1.8l2.5-0.1c1,0,1.8,0.8,1.8,1.8v3.5L127.1,159.1z M124.8,155.7c0,0.5,0.4,0.8,0.8,0.8l1.5,0v-0.8
				c0-0.5-0.4-0.8-0.8-0.8l-1.5,0V155.7z"/>
			<path class="st12" d="M143.2,158.7v-2.9c0-1.3,1.1-2.4,2.4-2.4l2.7-0.1v2.9c0,1.3-1.1,2.4-2.4,2.4L143.2,158.7z M145.9,157.7
				c0.8,0,1.4-0.7,1.4-1.4v-2l-1.8,0c-0.8,0-1.4,0.7-1.4,1.4v2L145.9,157.7z"/>
			<path class="st12" d="M138.2,158.9v-3.5c0-1,0.8-1.8,1.8-1.8l2.5-0.1v1.8c0,1-0.8,1.8-1.8,1.8l-1.5,0v1.7L138.2,158.9z
				 M140.7,156.1c0.5,0,0.8-0.4,0.8-0.8v-0.8l-1.5,0c-0.5,0-0.8,0.4-0.8,0.8v0.8L140.7,156.1z"/>
			<path class="st12" d="M132.7,159v-1.7l-2.4,0v1.7l-1,0v-3.5c0-1,0.8-1.8,1.8-1.8l2.5-0.1v5.3L132.7,159z M132.7,156.3v-1.7
				l-1.5,0c-0.5,0-0.8,0.4-0.8,0.8v0.8L132.7,156.3z"/>
			<path class="st12" d="M134.3,158.9v-3.5c0-1,0.8-1.8,1.8-1.8l1.7,0v1l-1.7,0c-0.5,0-0.8,0.4-0.8,0.8v3.5L134.3,158.9z"/>
		</g>
	</g>
	<g>
		
			<ellipse transform="matrix(0.1296 -0.9916 0.9916 0.1296 -243.285 422.5287)" class="st10" cx="119" cy="349.8" rx="86.6" ry="86.6"/>
		<path class="st10" d="M55.8,409.8v6.3c0,1.9-1.5,3.4-3.4,3.4l0,0H31.8"/>
		<path class="st10" d="M21.5,433.2v-10.4c0-1.9,1.5-3.4,3.4-3.4h7"/>
		<path class="st12" d="M54,409.8c0,1,0.8,1.8,1.8,1.8c1,0,1.8-0.8,1.8-1.8c0-1-0.8-1.8-1.8-1.8C54.8,407.9,54,408.8,54,409.8z"/>
		<path class="st12" d="M24,432.1c0.6,0.6,0.6,1.5,0,2.1l-1.5,1.5c-0.6,0.6-1.5,0.6-2.1,0l-1.5-1.5c-0.6-0.6-0.6-1.5,0-2.1l1.5-1.5
			c0.6-0.6,1.5-0.6,2.1,0L24,432.1z"/>
		<path class="st10" d="M25.2,431.6c0.9,0.9,0.9,2.3,0,3.1l-2.2,2.2c-0.9,0.9-2.3,0.9-3.1,0l-2.2-2.2c-0.9-0.9-0.9-2.3,0-3.1
			l2.2-2.2c0.9-0.9,2.3-0.9,3.1,0L25.2,431.6z"/>
		<line class="st10" x1="155.1" y1="255.2" x2="155.1" y2="269.7"/>
		<path class="st13" d="M159,268.7L159,268.7l-1.4,2.5l-1.4,2.5v0h0c-0.2,0.3-0.6,0.6-1,0.6c-0.4,0-0.8-0.2-1-0.6h0l-1.4-2.5
			l-1.4-2.5c-0.1-0.2-0.2-0.4-0.2-0.6c0-0.6,0.5-1.1,1.1-1.1h2.9h2.9c0.6,0,1.1,0.5,1.1,1.1C159.1,268.4,159.1,268.6,159,268.7
			L159,268.7z"/>
		<g>
			<g>
				<path class="st13" d="M141.6,346.4h-5.7v3.3c0,1.5,1.2,2.6,2.6,2.6h5.7V349C144.3,347.6,143.1,346.4,141.6,346.4z"/>
				<path class="st13" d="M144.9,349.8v2.5h4.3c1.1,0,2-0.9,2-2v-2.5h-4.3C145.8,347.8,144.9,348.7,144.9,349.8z"/>
				<path class="st13" d="M144.9,345.7v1.5h2.6c0.7,0,1.2-0.5,1.2-1.2v-1.5h-2.6C145.4,344.5,144.9,345,144.9,345.7z"/>
			</g>
			<path class="st12" d="M140.4,360.8v-1.4h-2.1c-1.3,0-2.4-1.1-2.4-2.4v-3.4h3.4c0.7,0,1.3,0.3,1.8,0.8c0.5-0.5,1.1-0.8,1.8-0.8
				h3.4v3.4c0,1.3-1.1,2.4-2.4,2.4h-2.1v1.4H140.4z M143.8,358.1c0.6,0,1.1-0.5,1.1-1.1v-2.1h-2.1c-0.6,0-1.1,0.5-1.1,1.1v2.1H143.8
				z M137.1,357c0,0.6,0.5,1.1,1.1,1.1h2.1v-2.1c0-0.6-0.5-1.1-1.1-1.1h-2.1V357z"/>
			<path class="st12" d="M147.1,360.8v-4.8c0-1.3,1.1-2.4,2.4-2.4h3.4v2.4c0,1.3-1.1,2.4-2.4,2.4h-2.1v2.3H147.1z M150.6,357.2
				c0.6,0,1.1-0.5,1.1-1.1v-1.1h-2.1c-0.6,0-1.1,0.5-1.1,1.1v1.1H150.6z"/>
			<path class="st12" d="M156.3,360.8c-1.3,0-2.4-1.1-2.4-2.4v-2.3c0-1.3,1.1-2.4,2.4-2.4h3.4v2.4c0,1.3-1.1,2.4-2.4,2.4h-2.1
				c0.1,0.6,0.5,1,1.1,1h3.4v1.3H156.3z M157.3,357.2c0.6,0,1.1-0.5,1.1-1.1v-1.1h-2.1c-0.6,0-1.1,0.5-1.1,1.1v1.1H157.3z"/>
			<path class="st12" d="M165.1,360.8v-2.3H163c-0.6,0-1.1,0.5-1.1,1.1v1.2h-1.3v-1.2c0-0.7,0.3-1.3,0.8-1.8
				c-0.5-0.5-0.8-1.1-0.8-1.8v-2.4h3.4c1.4,0,2.4,1.1,2.4,2.4v4.8H165.1z M161.9,356.1c0,0.6,0.5,1.1,1.1,1.1h2.1v-1.1
				c0-0.6-0.5-1.1-1.1-1.1h-2.1V356.1z"/>
		</g>
		<g>
			<line class="st10" x1="175.7" y1="352.5" x2="194.2" y2="352.5"/>
			<line class="st25" x1="177.2" y1="355.2" x2="190.8" y2="355.2"/>
			<line class="st25" x1="176.1" y1="357.7" x2="189.7" y2="357.7"/>
			<line class="st25" x1="177.2" y1="360.2" x2="192.9" y2="360.2"/>
		</g>
		<g>
			<line class="st10" x1="37.4" y1="352.5" x2="54.3" y2="352.5"/>
			<line class="st26" x1="38.9" y1="355.2" x2="52" y2="355.2"/>
			<line class="st26" x1="37.9" y1="357.7" x2="50.9" y2="357.7"/>
			<line class="st26" x1="38.9" y1="360.2" x2="54" y2="360.2"/>
		</g>
		<path class="st24" d="M12,250.5v21.4l0,0c0,1.9,1.5,3.4,3.4,3.4l3.8,0c1.9,0,3.4,1.5,3.4,3.4l0,0l0,0c0,1.9-1.5,3.4-3.4,3.4H5.6
			c-1.9,0-3.4,1.5-3.4,3.4l0,0l0,0c0,1.9,1.5,3.4,3.4,3.4h5.8c1.9,0,3.4,1.5,3.4,3.4l0,0v3.1v18.9l0,0c0,1.9,1.5,3.4,3.4,3.4h20.3"
			/>
		<path class="st10" d="M17.6,250.5c0-3.1-2.5-5.6-5.6-5.6c-3.1,0-5.6,2.5-5.6,5.6c0,3.1,2.5,5.6,5.6,5.6
			C15.1,256.1,17.6,253.6,17.6,250.5z M15.1,250.5c0,1.7-1.4,3.1-3.1,3.1c-1.7,0-3.1-1.4-3.1-3.1c0-1.7,1.4-3.1,3.1-3.1
			C13.7,247.4,15.1,248.8,15.1,250.5z"/>
		<path class="st12" d="M20.8,278.7c0-1-0.8-1.8-1.8-1.8c-1,0-1.8,0.8-1.8,1.8c0,1,0.8,1.8,1.8,1.8C20,280.5,20.8,279.7,20.8,278.7z
			"/>
		<path class="st12" d="M7.9,285.4c0-1-0.8-1.8-1.8-1.8c-1,0-1.8,0.8-1.8,1.8c0,1,0.8,1.8,1.8,1.8C7.1,287.2,7.9,286.4,7.9,285.4z"
			/>
		<path class="st12" d="M13.8,250.5c0-1-0.8-1.8-1.8-1.8c-1,0-1.8,0.8-1.8,1.8c0,1,0.8,1.8,1.8,1.8C13,252.3,13.8,251.5,13.8,250.5z
			"/>
		<path class="st12" d="M20.3,313.8c0-1-0.8-1.8-1.8-1.8c-1,0-1.8,0.8-1.8,1.8c0,1,0.8,1.8,1.8,1.8
			C19.5,315.6,20.3,314.8,20.3,313.8z"/>
		<path class="st12" d="M17.2,272c0-1-0.8-1.8-1.8-1.8c-1,0-1.8,0.8-1.8,1.8c0,1,0.8,1.8,1.8,1.8C16.4,273.8,17.2,273,17.2,272z"/>
		<path class="st12" d="M42.4,319.5l0-4.1c0-1.6-1.3-2.9-2.9-2.9l-4.1,0c-1.6,0-2.9,1.3-2.9,2.9l0,4.1c0,1.6,1.3,2.9,2.9,2.9l4.1,0
			C41.1,322.4,42.4,321.1,42.4,319.5z M36.3,320.1c-0.9,0-1.6-0.7-1.6-1.6v-2.3c0-0.9,0.7-1.6,1.6-1.6l2.3,0c0.9,0,1.6,0.7,1.6,1.6
			v2.3c0,0.9-0.7,1.6-1.6,1.6L36.3,320.1z"/>
		<path class="st10" d="M32.6,342.1H5.9c-1.9,0-3.4,1.5-3.4,3.4l0,0v16.3"/>
		<path class="st12" d="M0.2,361.9c-0.1-0.4-0.2-0.7-0.2-1.1c0-0.8,0-1.7,0-2.5c0-0.1,0-0.1,0.1-0.1c0.8,0,1.5,0,2.3,0
			c0.2,0,0.4,0,0.5,0c0.1,0,0.2,0,0.3,0.1c0.2,0.1,0.4,0.1,0.5,0.2c0.4,0.2,0.7,0.5,0.9,0.9c0.2,0.3,0.3,0.7,0.3,1.1
			c0,0.4,0,0.8,0,1.2c0,0.5,0,1,0,1.4c0,0.1,0,0.1-0.1,0.1c-0.4,0-3-0.1-3.5-0.2l0,0C1.4,362.9,0.4,362.6,0.2,361.9z"/>
		<path class="st12" d="M35.3,342.1c0-1.9-1.5-3.4-3.4-3.4c-1.9,0-3.4,1.5-3.4,3.4c0,1.9,1.5,3.4,3.4,3.4
			C33.8,345.4,35.3,343.9,35.3,342.1z M30.1,342.1c0-1,0.8-1.9,1.9-1.9c1,0,1.9,0.8,1.9,1.9c0,1-0.8,1.9-1.9,1.9
			C30.9,343.9,30.1,343.1,30.1,342.1z"/>
		<path class="st10" d="M213.9,408.8v-4c0-2-1.6-3.6-3.6-3.6l0,0h-4.4"/>
		<path class="st10" d="M203,414.4h7.3c2,0,3.6-1.6,3.6-3.6l0,0v-4.8"/>
		<path class="st16" d="M203.3,414.4H196c-2,0-3.6,1.6-3.6,3.6v9.3v3.5"/>
		<path class="st16" d="M197.8,386.2v11.3c0,2,1.6,3.6,3.6,3.6l0,0h4.4"/>
		<path class="st12" d="M213.9,410.5c1.5,0,2.7-1.2,2.7-2.7c0-1.5-1.2-2.7-2.7-2.7c-1.5,0-2.7,1.2-2.7,2.7
			C211.2,409.4,212.4,410.5,213.9,410.5z"/>
		<path class="st10" d="M197.8,392.3c3.4,0,6.2-2.8,6.2-6.2c0-3.4-2.8-6.2-6.2-6.2c-3.4,0-6.2,2.8-6.2,6.2
			C191.6,389.6,194.4,392.3,197.8,392.3z"/>
		<path class="st10" d="M197.8,389c1.5,0,2.8-1.3,2.8-2.8c0-1.5-1.3-2.8-2.8-2.8c-1.5,0-2.8,1.3-2.8,2.8
			C195,387.7,196.3,389,197.8,389z"/>
		<path class="st12" d="M193.8,434.4l2.1-2.1c0.8-0.8,0.8-2.1,0-2.9l-2.1-2.1c-0.8-0.8-2.1-0.8-2.9,0l-2.1,2.1
			c-0.8,0.8-0.8,2.1,0,2.9l2.1,2.1C191.7,435.2,193,435.2,193.8,434.4z M190.4,431.7c-0.4-0.4-0.4-1.2,0-1.6l1.1-1.1
			c0.4-0.4,1.2-0.4,1.6,0l1.1,1.1c0.4,0.4,0.4,1.2,0,1.6l-1.1,1.1c-0.4,0.4-1.2,0.4-1.6,0L190.4,431.7z"/>
		<path class="st13" d="M201.7,350.8L201.7,350.8l1.4-2.5l1.4-2.5v0h0c0.2-0.3,0.6-0.6,1-0.6c0.4,0,0.8,0.2,1,0.6h0l1.4,2.5l1.4,2.5
			c0.1,0.2,0.2,0.4,0.2,0.6c0,0.6-0.5,1.1-1.1,1.1h-2.9h-2.9c-0.6,0-1.1-0.5-1.1-1.1C201.6,351.2,201.6,351,201.7,350.8L201.7,350.8
			z"/>
		<g>
			<line class="st16" x1="132.3" y1="387.8" x2="125.6" y2="386.1"/>
			<polygon class="st16" points="115.6,395.2 60.4,383.7 60.4,374.8 115.6,385 			"/>
			<polygon class="st16" points="108,385 88.8,381.7 88.8,387.9 108,391.9 			"/>
			<polygon class="st16" points="82.8,386.8 65.5,383.3 65.5,377.3 82.8,380.2 			"/>
			<polyline class="st16" points="96.2,383 96.2,386.8 108,388.8 			"/>
			<polyline class="st16" points="73,378.5 73,382 82.8,383.8 			"/>
			<line class="st16" x1="96.2" y1="386.8" x2="89.2" y2="387.9"/>
			<line class="st16" x1="73" y1="382" x2="65.5" y2="383.3"/>
			<path class="st16" d="M83.4,335.3l-2.4-0.2c0,0,6.5-2.8,11-4.9s12.3-2.2,16.4,1.8c4.1,4,3.9,5.6,7.8,0.9c1.4-1.7,3.7-4.4,6-6.5"
				/>
			<path class="st16" d="M88.7,336.1c0,0-3.9,5-3.8,6.5c0.1,1.6,1,1.3,7.2,1.9s10.7-0.1,15.9,1.4c5.2,1.5,6.9,1.8,12.8-1.2
				c1.6-0.8,3.8-1.9,5.5-2.6"/>
			<path class="st16" d="M125,338c-0.4,0.2-1.4,0.6-1.8,0.7c-6,2.5-8.9,7.3-9.9,6.4c-1-1-4.7-1.9-12.3-3.2
				c-7.6-1.3-10.3-0.8-12.5-0.4c-2.2,0.3-5.1,2.4-6,2.8l3.1-0.5"/>
			<path class="st16" d="M92.1,344.5c0,0-4,3.4-5.6,5.9c-1.6,2.5-2.4,4.5-3.4,5.3c-0.9,0.8-2.1,1.8-2.1,1.8s7.6-4.8,16.2-2.4
				c8.6,2.4,11.8,3.7,14,5.6c2.2,1.9,1.5,2.4,7.1-3.1c2.3-2.3,6.1-5,9.9-6.9"/>
			<path class="st16" d="M83.1,356.6c0,0,2.6,2.1,7.8,2.7c5.2,0.6,11.4,0.8,16.9,2.4c5.5,1.7,7.4,2.4,12.4-1.4
				c2.1-1.6,5.3-3.5,8.6-4.9"/>
			<path class="st16" d="M89.6,359.1c0,0-4.8,3.7-4,5.6c0.8,1.9,0.9,3.4,5.8,3.3c4.9-0.1,9.9-0.4,17.1,2.3c7.2,2.7,7.9,3.1,15.6-0.5
				c1.8-0.8,4.1-1.7,5.9-2.3"/>
			<path class="st16" d="M85.5,363.6l-2.4,1.8c0,0,9-1.8,15.6-0.4c6.5,1.4,15.5,5.1,16.7,5.1c1,0,6.9-5,14.1-7.7"/>
			<path class="st16" d="M88.3,367.8c0,0-4.4,3.2-5.2,4.6c-0.7,1.4-0.8,1.6-0.6,2.4c0.3,0.8,2.7,2.5,6.9,3.8c4.2,1.3,7.2,4,17.4,4.4
				c10.1,0.4,15.5-0.4,20.6-2c1.2-0.4,2.7-0.8,4.1-1.2"/>
			<path class="st16" d="M82.4,373.9l-2.4,0.9c0,0,8.8-1.5,16.7,0.8c7.9,2.4,8.7,2.4,11.1,3.9c2.4,1.5,3.8,2.5,3.8,2.5
				s5.6-2.9,12.2-4.8c2.2-0.6,4.9-1.5,7-2.1"/>
			<path class="st16" d="M111.7,310.7c0,0-17.6-4.7-31.7,1.5c-14.1,6.2-23.5,13.7-22.6,16.5c0.9,2.8,3.5,1.3,8.1,1.5
				c4.6,0.2,10.1,0.6,12.7,1.4c2.6,0.8,4.8,1.8,4.8,1.8"/>
			<path class="st16" d="M55.5,329c0,0,4.9-1.9,8.5-2.2c3.6-0.3,6.5-1.1,11.1,0.8c4.6,1.9,7.4,3.4,7.4,3.4l3.6-1.6"/>
			<path class="st16" d="M63.5,330.2c0,0-5.3,3.7-6.2,5.6c-0.9,1.9-1.4,3.6-2.3,4.3c-0.9,0.6-1.7,1.2-1.7,1.2s7.2-3,13.5-1.9
				c6.3,1.1,12.2,3.3,13.1,3.4c0.9,0.1,2.2-0.7,3.6-1.7c1.3-1,2.7-1.8,2.7-1.8"/>
			<path class="st16" d="M57.4,340.1c0,0,3.5,2.2,9.4,2.7c5.9,0.5,12.3,1.6,12.3,1.6s2.5,0.5,3.5-0.1"/>
			<path class="st16" d="M63.5,342.3c0,0-2.9,2.2-3.8,4.2c-0.9,2-1.1,3.2-2.3,4.1c-1.3,0.9,0.6-0.2,2.2-0.7c1.7-0.4,6.5-1.7,12-0.2
				c5.6,1.6,7.6,2.2,9.3,2.9c1.7,0.7,2.4,0.8,3.6,0c1.1-0.8,1.1-0.8,1.1-0.8"/>
			<path class="st16" d="M58.4,350.3c0,0,5,2,11.6,2.9c6.6,0.9,9.7,1.7,11.6,1.5c1.9-0.3,2.7-0.4,2.7-0.4"/>
			<path class="st16" d="M64.3,352.5c0,0-4.3,1.9-5.9,4.3c-1.7,2.5-2.6,4.5-3.3,5.3c-0.7,0.8-2.4,1.8-2.4,1.8s7.6-3.9,14.4-1.8
				c6.8,2.2,9,2.7,10.7,4.4c1.7,1.7,2.4,1.4,3.1,0.9c0.8-0.5,2.8-2.1,2.8-2.1"/>
			<path class="st16" d="M55.5,362.8c0,0-0.8,1.9,2.9,2.1c3.7,0.3,7.3-1.1,11.5,0c4.2,1.1,5.7,2.4,8.7,3.5c3,1,5.5,0.1,6.6-0.5
				c1.1-0.6,1.7-0.8,1.7-0.8"/>
			<path class="st16" d="M63.9,364.6c0,0-3.8,1-5.1,2.8c-1.2,1.7-4.1,3.4-4.1,3.4s7.9-3,14-1c6.1,1.9,7.8,2.2,9.2,3.2
				c1.4,1,2.2,1.9,2.2,1.9"/>
			<path class="st16" d="M57,370c0,0,3,2.6,8.8,3.9c5.8,1.3,11.2,2.8,14.3,3.3c3,0.5,6.8,0.3,6.8,0.3"/>
			<line class="st16" x1="60.4" y1="374.8" x2="64" y2="374"/>
			<path class="st16" d="M123,330.6c-0.7-3.3-1.3-6.5-1.5-9.4c-0.4-5.5-0.1-9-0.4-12c-4.6,0.3-9.1,1.2-13.3,2.9
				c-11.6,4.9-16.7,7.9-20.7,15.3c-4,7.3-4.2,5.2-4,7.3c0,0,0.6,2.9,4.3,1.8c3.7-1,5.8-4,11.7-3.6c5.9,0.4,6.9,0.4,10,1.9
				c3.1,1.4,3.9,2.7,11-2.2C121.2,331.9,122.1,331.2,123,330.6z"/>
			<path class="st16" d="M122.7,386.6l9.4-1.8c0-0.2,0-0.4-0.1-0.7c-0.1-0.8-0.2-1.6-0.3-2.4l-16.1,3.2v10.2l7.2-1.6V386.6z"/>
			<path class="st10" d="M175.9,303.9c0,0-9.5,1.4-14.5,3.9c-5,2.6-9.1,5.1-16.6,5.1c-7.6,0-15.2-3.2-17.9-4.5c-2.7-1.3-6-1.1-6-1.1
				"/>
			<path class="st16" d="M131.3,393.2c0,0,2.4,4.5,5.4,6.9c2.9,2.4,3.8,2.7,3.8,2.7s-3-0.9-5.2-2c-2.2-1-3.5-2-3.5-2
				s3.1,4.8,4.9,5.5c1.7,0.7-3.3-0.8-5.4-2.8c-2.1-2-2.3-0.5-1.4,0.7c0.9,1.2-3.8-3.3-3.1-3.9C128.3,397.2,130.7,395.4,131.3,393.2z
				"/>
			<path class="st16" d="M174.6,304.1l-3.2,24.9c0,0,0.9-9.5,0-13.2c-0.9-3.6-4.5,10.7-4.5,10.7l7.4-25"/>
			<path class="st16" d="M125.2,307.8c0,0,5.4,7.5,6,11.1c0.6,3.6,1.4,10.1,1.4,10.1s-0.9-8.3-2.9-11.1c-1.9-2.8-5.5-4.8-3.9,2.7
				c1.6,7.5,3.2,14.3,3.2,14.3s-4.8-17.9-4.9-20.7c-0.1-2.8-2-10.9-3-11.7"/>
			<path class="st16" d="M177.3,301c0,0-2,3-1.9,6.2c0.1,3.1,1.5,8.4,0.9,11.1c-0.6,2.7-1.6,10.5-2.7,15.1c-1,4.7-1.7,7.7-1.7,10.7
				c0,3,0.7,15.7,1.6,21.2c0.9,5.5,2.1,13.4,1.7,18.6c-0.3,5.2-1.4,13.4,0.6,16.3c2,2.9,5,6.2,5,6.2s-9.7,4.4-29.5,2.7
				c-19.8-1.7-21.4-1.7-26.1-2.8c-4.7-1-6.5-2-6.5-2s5.5-4,8.4-6.2c2.9-2.2,5.9-5,4.8-13.9s-2-17.2-2.6-22.6
				c-0.6-5.4-1.2-13.6-3.5-20.6c-2.3-7-4-13.9-4.4-19.8c-0.5-5.9,0-9.5-0.5-12.7c-0.5-3.1-1.7-6.2-1.7-6.2s6.3,0.3,11.1,2.4
				c4.8,2.1,9,4.3,13.2,3.5c4.2-0.8,8.4-1.3,10.2-0.2c1.9,1,6.4-1.5,10.4-3.1C168.1,303.3,175.7,300.8,177.3,301z"/>
		</g>
	</g>
	<g>
		<path class="st10" d="M235.4,396.4c8.7-15.1,30.5-15.1,39.2,0l28.9,50.1l28.9,50.1c8.7,15.1-2.2,34-19.6,34H255h-57.8
			c-17.4,0-28.3-18.9-19.6-34l28.9-50.1L235.4,396.4z"/>
		<g>
			<line class="st10" x1="200.3" y1="459.9" x2="216.1" y2="459.9"/>
			<line class="st25" x1="201.6" y1="462.2" x2="213.3" y2="462.2"/>
			<line class="st25" x1="200.7" y1="464.3" x2="212.3" y2="464.3"/>
			<line class="st25" x1="201.6" y1="466.5" x2="215.1" y2="466.5"/>
		</g>
		<g>
			<line class="st10" x1="295.2" y1="459.9" x2="311" y2="459.9"/>
			<line class="st25" x1="296.5" y1="462.2" x2="308.1" y2="462.2"/>
			<line class="st25" x1="295.5" y1="464.3" x2="307.2" y2="464.3"/>
			<line class="st25" x1="296.5" y1="466.5" x2="309.9" y2="466.5"/>
		</g>
		<path class="st30" d="M338.3,398.3"/>
		<path class="st30" d="M341.4,402.9"/>
		<path class="st10" d="M292.8,428.4v-12.6c0-2.1,1.7-3.8,3.8-3.8h7.6"/>
		<path class="st10" d="M327.8,408.2L327.8,408.2c0-2.1-1.7-3.8-3.8-3.8h-7.6"/>
		<path class="st10" d="M316.5,404.5h-7.6c-2.1,0-3.8-1.7-3.8-3.8l0,0v-61.3"/>
		<path class="st24" d="M331.4,494h11.4c2.1,0,3.8-1.7,3.8-3.8l0,0v-37.9c0-2.1,1.7-3.8,3.8-3.8l0,0h6.5"/>
		<path class="st10" d="M327.8,408.3L327.8,408.3c0,2.1-1.7,3.8-3.8,3.8h-19.8"/>
		<path class="st13" d="M327.7,494c0,2.1,1.7,3.8,3.8,3.8c2.1,0,3.8-1.7,3.8-3.8c0-2.1-1.7-3.8-3.8-3.8
			C329.4,490.2,327.7,491.9,327.7,494z M329.4,494c0-1.2,0.9-2.1,2.1-2.1c1.2,0,2.1,0.9,2.1,2.1c0,1.2-0.9,2.1-2.1,2.1
			C330.3,496.1,329.4,495.1,329.4,494z"/>
		<path class="st13" d="M220.9,534.5c2.5,0,4.4-2,4.4-4.4c0-2.5-2-4.4-4.4-4.4c-2.5,0-4.4,2-4.4,4.4
			C216.4,532.5,218.4,534.5,220.9,534.5z"/>
		<path class="st12" d="M323.8,406.2c-1.1,0-2.1,0.9-2.1,2.1c0,1.1,0.9,2.1,2.1,2.1c1.1,0,2.1-0.9,2.1-2.1
			C325.9,407.1,324.9,406.2,323.8,406.2z"/>
		<path class="st12" d="M296.7,413.7c-1.1,0-2.1,0.9-2.1,2.1c0,1.1,0.9,2.1,2.1,2.1c1.1,0,2.1-0.9,2.1-2.1
			C298.7,414.7,297.8,413.7,296.7,413.7z"/>
		<path class="st12" d="M308.1,335.2L308.1,335.2l-1.1,1.9l-1.1,1.9v0h0c-0.2,0.3-0.4,0.4-0.8,0.4c-0.3,0-0.6-0.2-0.8-0.4h0
			l-1.1-1.9l-1.1-1.9c-0.1-0.1-0.1-0.3-0.1-0.4c0-0.5,0.4-0.9,0.9-0.9h2.2h2.2c0.5,0,0.9,0.4,0.9,0.9
			C308.2,334.9,308.2,335,308.1,335.2L308.1,335.2z"/>
		<g>
			<g>
				<path class="st10" d="M213.8,473.4c0,0,1.5,2,8.6,2c7.1,0,8.6-2.4,8.6-2.4"/>
				<path class="st10" d="M213.8,493.5c0,0,2.8,3.1,8.6,3.1"/>
				<path class="st10" d="M222.4,470.2c-1.6,0-3-0.2-3.8-0.6v0.8c0,0.7,1.7,1.2,3.8,1.2c2.1,0,3.8-0.5,3.8-1.2v-0.8
					C225.4,470,224,470.2,222.4,470.2z"/>
				<path class="st10" d="M226.3,469.6c-0.9,0.4-2.3,0.6-3.8,0.6c-1.6,0-3-0.3-3.9-0.6c-2.6,0.5-4.8,1.6-4.8,3.5c0,4,0,17.1,0,20.5
					c0,3.4,1.7,4.2,4.3,4.7c2.6,0.5,7.4,0.8,9.7,0c2.3-0.8,3.3-1.8,3.3-5c0-3.2,0-17.8,0-20.2C231.1,471.4,228.9,470.2,226.3,469.6z
					"/>
				<polygon class="st10" points="227.1,463.6 227.1,463.6 227.1,463.6 				"/>
				<g>
					<path class="st10" d="M227.1,464c-0.3,0.7-2.3,1.3-4.7,1.3c-2.6,0-4.7-0.7-4.7-1.5c0-0.1,0-0.1,0.1-0.2h-0.1v5.2
						c0,0.8,2.1,1.5,4.7,1.5c2.6,0,4.7-0.7,4.7-1.5c0-0.1,0-0.1,0-0.2V464z"/>
					<polygon class="st10" points="227.1,463.6 227.1,463.6 227.1,463.6 					"/>
				</g>
				<path class="st10" d="M223.5,462.4c0,0.8,0,1.4,0,1.4c0,0.2-0.5,0.3-1.1,0.3c-0.6,0-1.1-0.2-1.1-0.3c0,0,0-0.6,0-1.4
					c-2.1,0.2-3.6,0.7-3.6,1.4c0,0.8,2.1,1.5,4.7,1.5c2.6,0,4.7-0.7,4.7-1.5C227.2,463.1,225.6,462.5,223.5,462.4z"/>
				<path class="st10" d="M243,456c-0.1-0.2-3.9-1-3.9-1s-10.3-0.7-13.6-0.7c-3.3,0-4.1,1.1-4.1,3.2c0,2.1,0,6.3,0,6.3
					c0,0.2,0.5,0.3,1.1,0.3c0.6,0,1.1-0.2,1.1-0.3c0,0,0-5.9,0-6.5c0-0.6,0.4-1,1.2-1c0.8,0,14.2,0.6,14.3,0.6
					c0.1,0,2.9-0.2,3.6-0.4C243.4,456.4,243,456.3,243,456z"/>
			</g>
			<g>
				<path class="st10" d="M292.8,459.9c0,0.5-1.2,0.9-2.7,0.9c-1.5,0-2.7-0.4-2.7-0.9c0-0.5,1.2-0.9,2.7-0.9
					C291.6,459,292.8,459.4,292.8,459.9z"/>
				<path class="st10" d="M293.4,473.1c0,0.5-1.2,0.9-2.7,0.9s-2.7-0.4-2.7-0.9s1.2-0.9,2.7-0.9S293.4,472.6,293.4,473.1z"/>
				<path class="st10" d="M294.1,475.6c0,0.5-1.2,0.9-2.7,0.9c-1.5,0-2.7-0.4-2.7-0.9c0-0.5,1.2-0.9,2.7-0.9
					C292.9,474.7,294.1,475.1,294.1,475.6z"/>
				<path class="st10" d="M280.4,475.6c0,0.5-1.2,0.9-2.7,0.9s-2.7-0.4-2.7-0.9c0-0.5,1.2-0.9,2.7-0.9S280.4,475.1,280.4,475.6z"/>
				<path class="st10" d="M280.4,473.2c0,0.5-1.2,0.9-2.7,0.9s-2.7-0.4-2.7-0.9s1.2-0.9,2.7-0.9S280.4,472.7,280.4,473.2z"/>
				<path class="st10" d="M280.4,470.6c0,0.5-1.2,0.9-2.7,0.9s-2.7-0.4-2.7-0.9c0-0.5,1.2-0.9,2.7-0.9S280.4,470.1,280.4,470.6z"/>
				<path class="st10" d="M280.4,468.1c0,0.5-1.2,0.9-2.7,0.9s-2.7-0.4-2.7-0.9c0-0.5,1.2-0.9,2.7-0.9S280.4,467.6,280.4,468.1z"/>
				<path class="st10" d="M292.8,459.9L292.8,459.9c0-0.5-1.2-0.9-2.7-0.9c-1.5,0-2.7,0.4-2.7,0.9v0l-0.3,2.4c0,0.6,1.3,1,3,1
					c1.7,0,3-0.5,3-1L292.8,459.9z"/>
				<path class="st10" d="M292.3,469.9v0.2c0,0.4-1,0.8-2.2,0.8c-1.2,0-2.2-0.3-2.2-0.8v-0.2c-0.3,0.2-0.5,0.3-0.5,0.6
					c0,0.5,1.2,0.9,2.7,0.9c1.5,0,2.7-0.4,2.7-0.9C292.8,470.2,292.7,470,292.3,469.9z"/>
				<path class="st10" d="M290.1,463.3c-0.9,0-1.6-0.1-2.2-0.3v7.1c0,0.4,1,0.8,2.2,0.8c1.2,0,2.2-0.3,2.2-0.8V463
					C291.8,463.2,291,463.3,290.1,463.3z"/>
				<ellipse class="st10" cx="284.5" cy="465.1" rx="2.7" ry="0.9"/>
				<path class="st10" d="M287.2,465.1L287.2,465.1c0-0.5-1.2-0.9-2.7-0.9s-2.7,0.4-2.7,0.9v0l-0.3,2.4c0,0.6,1.3,1,3,1
					c1.7,0,3-0.5,3-1L287.2,465.1z"/>
				<path class="st10" d="M286.6,475v0.2c0,0.4-1,0.8-2.2,0.8s-2.2-0.3-2.2-0.8V475c-0.3,0.2-0.5,0.3-0.5,0.6c0,0.5,1.2,0.9,2.7,0.9
					s2.7-0.4,2.7-0.9C287.2,475.4,287,475.2,286.6,475z"/>
				<path class="st10" d="M284.5,468.5c-0.9,0-1.6-0.1-2.2-0.3v7.1c0,0.4,1,0.8,2.2,0.8s2.2-0.3,2.2-0.8v-7.1
					C286.1,468.3,285.3,468.5,284.5,468.5z"/>
				<path class="st10" d="M282.3,489.9c0,0,1.9,0.8,4.4,0"/>
				<path class="st10" d="M286,492.7l-0.2,0.7c0,0.3-0.6,0.5-1.3,0.5s-1.3-0.2-1.3-0.5l-0.2-0.7c-0.5,0.2-0.9,0.4-0.9,0.6
					c0,0.5,1.1,0.8,2.4,0.8s2.4-0.4,2.4-0.8C286.8,493.1,286.5,492.8,286,492.7z"/>
				<path class="st10" d="M282.3,480.4v9.6l0.9,3.4c0,0.3,0.6,0.5,1.3,0.5s1.3-0.2,1.3-0.5l0.9-3.4v-9.6H282.3z"/>
				<path class="st10" d="M288,484.5c0,0,1.9,0.8,4.4,0"/>
				<path class="st10" d="M291.6,487.2l-0.2,0.7c0,0.3-0.6,0.5-1.3,0.5c-0.7,0-1.3-0.2-1.3-0.5l-0.2-0.7c-0.5,0.2-0.9,0.4-0.9,0.6
					c0,0.5,1.1,0.8,2.4,0.8s2.4-0.4,2.4-0.8C292.5,487.6,292.2,487.4,291.6,487.2z"/>
				<path class="st10" d="M288,480.4v4.1l0.9,3.4c0,0.3,0.6,0.5,1.3,0.5c0.7,0,1.3-0.2,1.3-0.5l0.9-3.4v-4.1H288z"/>
				<path class="st10" d="M273.6,465.1c0,0.5-1.2,0.9-2.7,0.9c-1.5,0-2.7-0.4-2.7-0.9s1.2-0.9,2.7-0.9
					C272.4,464.1,273.6,464.5,273.6,465.1z"/>
				<path class="st10" d="M279.7,493.3c0,0.4-1,0.8-2.3,0.8c-1.3,0-2.3-0.4-2.3-0.8c0-0.4,1-0.8,2.3-0.8
					C278.7,492.5,279.7,492.9,279.7,493.3z"/>
				<path class="st10" d="M279.7,490.4c0,0.4-1,0.8-2.3,0.8c-1.3,0-2.3-0.4-2.3-0.8c0-0.4,1-0.8,2.3-0.8
					C278.7,489.6,279.7,490,279.7,490.4z"/>
				<path class="st10" d="M279.7,487.8c0,0.4-1,0.8-2.3,0.8c-1.3,0-2.3-0.4-2.3-0.8c0-0.4,1-0.8,2.3-0.8
					C278.7,487,279.7,487.4,279.7,487.8z"/>
				<path class="st10" d="M279.7,485.4c0,0.4-1,0.8-2.3,0.8c-1.3,0-2.3-0.4-2.3-0.8c0-0.4,1-0.8,2.3-0.8
					C278.7,484.6,279.7,484.9,279.7,485.4z"/>
				<path class="st10" d="M293.7,493.3c0,0.4-1,0.8-2.3,0.8c-1.3,0-2.3-0.4-2.3-0.8c0-0.4,1-0.8,2.3-0.8
					C292.7,492.5,293.7,492.9,293.7,493.3z"/>
				<path class="st10" d="M293.1,490.4c0,0.4-1,0.8-2.3,0.8c-1.3,0-2.3-0.4-2.3-0.8c0-0.4,1-0.8,2.3-0.8
					C292,489.6,293.1,490,293.1,490.4z"/>
				<path class="st10" d="M273.6,465.1L273.6,465.1c0-0.5-1.2-0.9-2.7-0.9c-1.5,0-2.7,0.4-2.7,0.9v0l-0.3,2.4c0,0.6,1.3,1,3,1
					c1.7,0,3-0.5,3-1L273.6,465.1z"/>
				<path class="st10" d="M273.1,475v0.2c0,0.4-1,0.8-2.2,0.8c-1.2,0-2.2-0.3-2.2-0.8V475c-0.3,0.2-0.5,0.3-0.5,0.6
					c0,0.5,1.2,0.9,2.7,0.9c1.5,0,2.7-0.4,2.7-0.9C273.6,475.4,273.4,475.2,273.1,475z"/>
				<path class="st10" d="M270.9,468.5c-0.9,0-1.6-0.1-2.2-0.3v7.1c0,0.4,1,0.8,2.2,0.8c1.2,0,2.2-0.3,2.2-0.8v-7.1
					C272.5,468.3,271.7,468.5,270.9,468.5z"/>
				<path class="st10" d="M268.7,489.9c0,0,1.9,0.8,4.4,0"/>
				<path class="st10" d="M272.4,492.7l-0.2,0.7c0,0.3-0.6,0.5-1.3,0.5c-0.7,0-1.3-0.2-1.3-0.5l-0.2-0.7c-0.5,0.2-0.9,0.4-0.9,0.6
					c0,0.5,1.1,0.8,2.4,0.8c1.3,0,2.4-0.4,2.4-0.8C273.2,493.1,272.9,492.8,272.4,492.7z"/>
				<path class="st10" d="M268.7,480.4v9.6l0.9,3.4c0,0.3,0.6,0.5,1.3,0.5c0.7,0,1.3-0.2,1.3-0.5l0.9-3.4v-9.6H268.7z"/>
				<path class="st10" d="M267.1,465.1c0,0.5-1.2,0.9-2.7,0.9c-1.5,0-2.7-0.4-2.7-0.9s1.2-0.9,2.7-0.9
					C265.9,464.1,267.1,464.5,267.1,465.1z"/>
				<path class="st10" d="M267.1,465.1L267.1,465.1c0-0.5-1.2-0.9-2.7-0.9c-1.5,0-2.7,0.4-2.7,0.9v0l-0.3,2.4c0,0.6,1.3,1,3,1
					c1.7,0,3-0.5,3-1L267.1,465.1z"/>
				<path class="st10" d="M266.6,475v0.2c0,0.4-1,0.8-2.2,0.8c-1.2,0-2.2-0.3-2.2-0.8V475c-0.3,0.2-0.5,0.3-0.5,0.6
					c0,0.5,1.2,0.9,2.7,0.9c1.5,0,2.7-0.4,2.7-0.9C267.1,475.4,266.9,475.2,266.6,475z"/>
				<path class="st10" d="M264.4,468.5c-0.9,0-1.6-0.1-2.2-0.3v7.1c0,0.4,1,0.8,2.2,0.8c1.2,0,2.2-0.3,2.2-0.8v-7.1
					C266.1,468.3,265.3,468.5,264.4,468.5z"/>
				<path class="st10" d="M262.2,489.9c0,0,1.9,0.8,4.4,0"/>
				<path class="st10" d="M265.9,492.7l-0.2,0.7c0,0.3-0.6,0.5-1.3,0.5c-0.7,0-1.3-0.2-1.3-0.5l-0.2-0.7c-0.5,0.2-0.9,0.4-0.9,0.6
					c0,0.5,1.1,0.8,2.4,0.8c1.3,0,2.4-0.4,2.4-0.8C266.8,493.1,266.4,492.8,265.9,492.7z"/>
				<path class="st10" d="M262.2,480.4v9.6l0.9,3.4c0,0.3,0.6,0.5,1.3,0.5c0.7,0,1.3-0.2,1.3-0.5l0.9-3.4v-9.6H262.2z"/>
				<ellipse class="st10" cx="257.7" cy="465.1" rx="2.7" ry="0.9"/>
				<path class="st10" d="M260.4,465.1L260.4,465.1c0-0.5-1.2-0.9-2.7-0.9c-1.5,0-2.7,0.4-2.7,0.9v0l-0.3,2.4c0,0.6,1.3,1,3,1
					c1.7,0,3-0.5,3-1L260.4,465.1z"/>
				<path class="st10" d="M259.9,475v0.2c0,0.4-1,0.8-2.2,0.8c-1.2,0-2.2-0.3-2.2-0.8V475c-0.3,0.2-0.5,0.3-0.5,0.6
					c0,0.5,1.2,0.9,2.7,0.9c1.5,0,2.7-0.4,2.7-0.9C260.4,475.4,260.2,475.2,259.9,475z"/>
				<path class="st10" d="M257.7,468.5c-0.9,0-1.6-0.1-2.2-0.3v7.1c0,0.4,1,0.8,2.2,0.8c1.2,0,2.2-0.3,2.2-0.8v-7.1
					C259.3,468.3,258.5,468.5,257.7,468.5z"/>
				<path class="st10" d="M255.5,489.9c0,0,1.9,0.8,4.4,0"/>
				<path class="st10" d="M259.2,492.7l-0.2,0.7c0,0.3-0.6,0.5-1.3,0.5c-0.7,0-1.3-0.2-1.3-0.5l-0.2-0.7c-0.5,0.2-0.9,0.4-0.9,0.6
					c0,0.5,1.1,0.8,2.4,0.8c1.3,0,2.4-0.4,2.4-0.8C260,493.1,259.7,492.8,259.2,492.7z"/>
				<path class="st10" d="M255.5,480.4v9.6l0.9,3.4c0,0.3,0.6,0.5,1.3,0.5c0.7,0,1.3-0.2,1.3-0.5l0.9-3.4v-9.6H255.5z"/>
				<path class="st10" d="M254,465.1c0,0.5-1.2,0.9-2.7,0.9c-1.5,0-2.7-0.4-2.7-0.9s1.2-0.9,2.7-0.9
					C252.8,464.1,254,464.5,254,465.1z"/>
				<path class="st10" d="M254,465.1L254,465.1c0-0.5-1.2-0.9-2.7-0.9c-1.5,0-2.7,0.4-2.7,0.9v0l-0.3,2.4c0,0.6,1.3,1,3,1
					c1.7,0,3-0.5,3-1L254,465.1z"/>
				<path class="st10" d="M253.5,475v0.2c0,0.4-1,0.8-2.2,0.8c-1.2,0-2.2-0.3-2.2-0.8V475c-0.3,0.2-0.5,0.3-0.5,0.6
					c0,0.5,1.2,0.9,2.7,0.9c1.5,0,2.7-0.4,2.7-0.9C254,475.4,253.8,475.2,253.5,475z"/>
				<path class="st10" d="M251.3,468.5c-0.9,0-1.6-0.1-2.2-0.3v7.1c0,0.4,1,0.8,2.2,0.8c1.2,0,2.2-0.3,2.2-0.8v-7.1
					C252.9,468.3,252.1,468.5,251.3,468.5z"/>
				<path class="st10" d="M249.1,489.9c0,0,1.9,0.8,4.4,0"/>
				<path class="st10" d="M252.8,492.7l-0.2,0.7c0,0.3-0.6,0.5-1.3,0.5c-0.7,0-1.3-0.2-1.3-0.5l-0.2-0.7c-0.5,0.2-0.9,0.4-0.9,0.6
					c0,0.5,1.1,0.8,2.4,0.8c1.3,0,2.4-0.4,2.4-0.8C253.6,493.1,253.3,492.8,252.8,492.7z"/>
				<path class="st10" d="M249.1,480.4v9.6l0.9,3.4c0,0.3,0.6,0.5,1.3,0.5c0.7,0,1.3-0.2,1.3-0.5l0.9-3.4v-9.6H249.1z"/>
				<path class="st10" d="M248.8,468c0,0-2.1,9.3-2.1,9.8c0,0.4,0.3,2.6,0.3,2.6h49.8c0,0,0.1-2.2,0-2.7c0-0.5-3.7-11.7-3.7-11.7
					h-0.8"/>
				<line class="st10" x1="288" y1="466" x2="287.3" y2="466"/>
				<line class="st10" x1="281.6" y1="466" x2="273.7" y2="466"/>
				<line class="st10" x1="268.1" y1="466" x2="267.2" y2="466"/>
				<line class="st10" x1="261.6" y1="466" x2="260.5" y2="466"/>
				<line class="st10" x1="254.9" y1="466" x2="254.1" y2="466"/>
				<line class="st10" x1="246.7" y1="477.8" x2="296.8" y2="477.8"/>
				<line class="st10" x1="288" y1="483" x2="286.6" y2="483"/>
				<path class="st10" d="M293.5,484.3c-0.3-1-0.4-1.2-0.4-1.2h-0.8"/>
				<path class="st10" d="M295.5,497.4h1.3c0,0,0.1-2.2,0-2.7c0-0.2-0.4-1.2-1.1-3.5"/>
				<path class="st10" d="M247.4,491.2c0,0-0.8,3.2-0.7,3.6c0,0.4,0.3,2.6,0.3,2.6h29.9"/>
				<line class="st10" x1="246.7" y1="494.8" x2="296.8" y2="494.8"/>
				<line class="st10" x1="282.3" y1="483" x2="273.1" y2="483"/>
				<line class="st10" x1="268.7" y1="483" x2="266.6" y2="483"/>
				<line class="st10" x1="262.2" y1="483" x2="259.9" y2="483"/>
				<line class="st10" x1="255.5" y1="483" x2="253.5" y2="483"/>
				<rect x="294.8" y="480.4" class="st10" width="0.9" height="10.9"/>
				<rect x="247.4" y="480.4" class="st10" width="0.9" height="10.9"/>
				<polyline class="st10" points="294.8,491.2 293.5,486.9 293.5,480.4 				"/>
				<line class="st10" x1="248.3" y1="491.2" x2="249.1" y2="488.4"/>
			</g>
			<path class="st10" d="M231.1,492.8c1.1,0,2.3,0,3.5,0c1.3,0,2.6,0,3.9,0c1.5,0,2.8,0,3.7,0c0.6,0,1,0,1.1,0
				c1.2-0.1,3.5-0.4,3.4-2.3c-0.1-1.9,0-38.9,0-41.2c0-2.3-3-5.2-3-5.2"/>
			<path class="st10" d="M227.8,443.1c0,0-3,3.2-3,4.6c0,0.5,0-0.7,0,6.6"/>
			<path class="st10" d="M245.1,442.5c0,0,3.2,0.8,3.6,4.3c0.3,3.5,0.2,17.8,0.2,17.8"/>
			<path class="st10" d="M244.4,436.7c0,0.9-3.6,1.6-8,1.6c-4.4,0-8-0.7-8-1.6c0-0.9,3.6-1.6,8-1.6
				C240.8,435.1,244.4,435.8,244.4,436.7z"/>
			<path class="st10" d="M244.4,441.4C244.4,441.4,244.4,441.4,244.4,441.4c0,1-3.6,1.7-8,1.7c-3.9,0-7.1-0.6-7.8-1.3
				c-0.7,0.5-0.8,0.9-0.8,1.3c0,1,3.9,1.8,8.6,1.8c4.8,0,8.6-0.8,8.6-1.8C245.1,442.6,245.4,441.9,244.4,441.4z"/>
			<path class="st10" d="M244.4,441.3v-4.5h0c-0.3,0.9-3.7,1.5-8,1.5s-7.7-0.7-8-1.5h0v4.6c0,0.9,3.6,1.6,8,1.6c4.4,0,8-0.7,8-1.6
				C244.4,441.4,244.4,441.4,244.4,441.3z"/>
			<path class="st10" d="M229.6,437.6c0,0-0.2,3.5,0,3.8c0.2,0.3,0.6,0.2,0.6,0.2"/>
			<path class="st10" d="M230.8,437.9c0,0-0.2,3.5,0,3.8c0.2,0.3,0.6,0.2,0.6,0.2"/>
			<path class="st10" d="M232.3,438.2c0,0-0.2,3.5,0,3.8c0.2,0.3,0.6,0.2,0.6,0.2"/>
			<path class="st10" d="M242.5,437.9c0,0,0.2,3.5,0,3.8c-0.2,0.3-0.6,0.2-0.6,0.2"/>
			<g>
				<rect x="251.1" y="446.2" class="st10" width="34.9" height="14.8"/>
				<rect x="252.2" y="448.6" class="st10" width="32.6" height="10.1"/>
				<rect x="251.1" y="446.2" class="st10" width="34.9" height="1.3"/>
				<polyline class="st10" points="251.1,446.2 251.4,444.4 252.7,443.9 254,434.6 252.9,435.9 251.4,444.4 				"/>
				<polyline class="st10" points="286,446.2 285.6,444.4 284.3,443.9 283.1,434.6 284.1,435.9 285.6,444.4 				"/>
				<line class="st10" x1="262.6" y1="434.6" x2="283.1" y2="434.6"/>
				<rect x="255.4" y="450.8" class="st10" width="14.9" height="6.2"/>
				<rect x="275" y="450.5" class="st10" width="2.6" height="2.6"/>
				<rect x="275" y="454.1" class="st10" width="2.6" height="2.6"/>
				<rect x="278.8" y="450.5" class="st10" width="2.6" height="2.6"/>
				<rect x="278.8" y="454.1" class="st10" width="2.6" height="2.6"/>
				<path class="st10" d="M259.6,435.9c-1.7,0-3-0.6-3-1.3v3.4c0,0.7,1.4,1.3,3,1.3s3-0.6,3-1.3v-3.4
					C262.7,435.3,261.3,435.9,259.6,435.9z"/>
				<path class="st10" d="M262.7,434.6c0,0.7-1.4,1.3-3,1.3s-3-0.6-3-1.3c0-0.7,1.4-1.3,3-1.3S262.7,433.9,262.7,434.6z"/>
				<path class="st10" d="M265.3,439c-1.3,0-2.4-0.5-2.4-1v1.5c0,0.6,1.1,1,2.4,1c1.3,0,2.4-0.5,2.4-1v-1.5
					C267.7,438.5,266.6,439,265.3,439z"/>
				<line class="st10" x1="256.6" y1="434.6" x2="254" y2="434.6"/>
				<rect x="264.1" y="435.5" class="st10" width="2.5" height="1.6"/>
				<rect x="264.1" y="437.1" class="st10" width="2.5" height="1.4"/>
				<path class="st10" d="M266.6,437.1v1.4h-2.5v-1.4c-0.7,0.2-1.2,0.5-1.2,0.9c0,0.6,1.1,1,2.4,1c1.3,0,2.4-0.5,2.4-1
					C267.7,437.6,267.3,437.3,266.6,437.1z"/>
			</g>
			<g>
				<path class="st10" d="M270,508.3c0.4-1.1,0.5-1.8,0.6-2.2c0.2-1-0.1-2.9-1.3-3.8c0,0-2.5-1.8-3.1-0.9c-0.6,0.9,0,2.8,0.7,3.4"/>
				<path class="st10" d="M268.4,504.3c-0.8,0.6-2.2,0.9-4.2,0.9c-2,0-28.1,0-28.7,0c-0.6,0-1.6,2.7-1.7,4.5
					c-0.2,1.8,0.7,2.8,2.3,2.9c1.6,0.1,21.2,1.3,23.1,1.6c1.9,0.3,3.3,0.4,4.5,1.1c1.2,0.7,2.3-0.5,3.8-1.6c0.7-0.5,1.2-1.4,1.8-3"
					/>
				<path class="st10" d="M269.9,504c-0.5,0.7-2.9,1.9-3.2,3.4c-0.3,1.6-1,5.7,0,5.8"/>
				<path class="st10" d="M234,508.3c0,0,31.4-0.8,31.7-0.5c0.3,0.3-1.3,2.6-1.6,3.5c-0.3,0.9-0.6,1.5-0.4,2.2"/>
				<polygon class="st10" points="242.8,505.5 251.4,505.5 250.8,506.8 242.3,506.8 				"/>
				<path class="st10" d="M234.7,505.9h-3.1c0,0-0.4,1.1-1.1,1.3c-0.8,0.1-21.6,0-21.6,0s-0.7,0.5-0.7,1.1c0,0.6-0.2,1,1.2,1
					c1.3,0,18.8,0.6,19.9,0.6c1.1,0,1.5,0.5,1.6,0.7c0.1,0.2,0.1,0.2,0.1,0.2l3,0.4"/>
				<path class="st10" d="M208.7,507.4l-11,0.3c0,0-0.3,0.4,0,0.6c0.3,0.2,10.7,0.8,10.7,0.8"/>
				<path class="st10" d="M267.9,508.3h4.6c0,0-0.2-1.1,0.7-1.4c1-0.4,1.2-0.5,1.7,0.3c0.5,0.8,0.7,2.6,0.4,3.5
					c-0.2,0.9-0.5,2-1.3,2c-0.7-0.1-1.6-2-1.6-2h-4.9C267.6,510.6,267,509.4,267.9,508.3z"/>
				<path class="st10" d="M273.2,506.8c0,0-0.7,2.8,0,5.1"/>
			</g>
			<g>
				<path class="st10" d="M286,495.5c5.3-0.2,9.4,1.7,10.3,2.4c1,0.7,1.1,0.7,1.1,0.7l-2.2,0.4c0,0-4.2-2.4-9.2-2.2s-9.4,2-9.8,3.7
					c-0.4,1.7,2.2,6,9.4,5.8c7.2-0.2,9.3-1.5,9.3-1.5l3.9-1.1c0,0,0.4,1.3-0.7,1.6c-1.9,0.5-7.2,2.3-11.4,2.2
					c-4.2-0.1-11-0.8-11.8-4C274.1,500.3,273.7,496,286,495.5z"/>
				<path class="st10" d="M274.5,501.5c0,0,0.6,12.5,11.5,12.7c10.9,0.2,12.7-9.2,12.7-9.2v-1.4l0,0"/>
				<path class="st10" d="M298.8,503.6c0,0,2-0.4,2.7-1.1c0.7-0.6,1.3-4-1.6-4.4l-13.2,2.1c0,0-1.9,0.8-1.7,2.6
					c0.2,1.9,0.3,2,0.7,2.6c0.4,0.7,1.2,0.6,1.2,0.6"/>
				<path class="st10" d="M299.2,498.3c0,0-3.4,3,1.2,4.8"/>
				<path class="st10" d="M288.6,499.9c0,0-5.6-2.4-5.7,2.7c-0.1,2.9,1,3.6,1,3.6"/>
			</g>
			<line class="st10" x1="224.8" y1="456.3" x2="224.8" y2="462.5"/>
			<g>
				<path class="st10" d="M246.8,499c0,2.4-3.7,4.4-8.4,4.4c-4.6,0-8.4-2-8.4-4.4c0-2.4,3.7-4.4,8.4-4.4
					C243.1,494.6,246.8,496.5,246.8,499z"/>
				<ellipse class="st10" cx="238.5" cy="498.7" rx="7.8" ry="3.8"/>
				<path class="st10" d="M239.9,489.4c0,0.4-0.7,0.7-1.5,0.7c-0.8,0-1.5-0.3-1.5-0.7c0-0.4,0.7-0.7,1.5-0.7
					C239.3,488.7,239.9,489,239.9,489.4z"/>
				<polyline class="st10" points="230.9,497.1 237,489.4 237.7,472 239.7,471.1 239.9,489.4 245.6,496.6 				"/>
			</g>
		</g>
		<path class="st10" d="M297.6,428.4c0-2.7-2.1-4.8-4.8-4.8c-2.7,0-4.8,2.1-4.8,4.8c0,2.7,2.1,4.8,4.8,4.8
			C295.5,433.2,297.6,431.1,297.6,428.4z M295.5,428.4c0,1.5-1.2,2.7-2.7,2.7c-1.5,0-2.7-1.2-2.7-2.7c0-1.5,1.2-2.7,2.7-2.7
			C294.3,425.8,295.5,427,295.5,428.4z"/>
		<path class="st12" d="M294.4,428.4c0-0.9-0.7-1.6-1.6-1.6c-0.9,0-1.6,0.7-1.6,1.6c0,0.9,0.7,1.6,1.6,1.6
			C293.7,430,294.4,429.3,294.4,428.4z"/>
		<path class="st10" d="M298.1,536h-28.3c-1.7,0-3.1,1.4-3.1,3.1l0,0v5.6v5.6l0,0c0,1.7-1.4,3.1-3.1,3.1h-6.2h-6.2
			c-1.7,0-3.1-1.4-3.1-3.1l0,0v-19.9"/>
		<path class="st12" d="M248,528.7c-0.9,0-1.7,0.8-1.7,1.7c0,0.9,0.8,1.7,1.7,1.7c0.9,0,1.7-0.8,1.7-1.7
			C249.7,529.5,248.9,528.7,248,528.7z"/>
		<path class="st12" d="M298.1,534.3c-0.9,0-1.7,0.8-1.7,1.7c0,0.9,0.8,1.7,1.7,1.7c0.9,0,1.7-0.8,1.7-1.7
			C299.7,535,299,534.3,298.1,534.3z"/>
		<path class="st12" d="M263.8,551.6L263.8,551.6l-1.6-0.9l-1.6-0.9h0v0c-0.2-0.1-0.4-0.4-0.4-0.6c0-0.3,0.1-0.5,0.4-0.6l0,0
			l1.6-0.9l1.6-0.9c0.1-0.1,0.2-0.1,0.4-0.1c0.4,0,0.7,0.3,0.7,0.7l0,1.8l0,1.8c0,0.4-0.3,0.7-0.7,0.7
			C264,551.7,263.9,551.7,263.8,551.6L263.8,551.6z"/>
		<path class="st12" d="M356,446.4c0.5-0.5,1.3-0.5,1.8,0l1.3,1.3c0.5,0.5,0.5,1.3,0,1.8l-1.3,1.3c-0.5,0.5-1.3,0.5-1.8,0l-1.3-1.3
			c-0.5-0.5-0.5-1.3,0-1.8L356,446.4z"/>
		<path class="st10" d="M355.6,445.4c0.7-0.7,1.9-0.7,2.7,0l1.9,1.9c0.7,0.7,0.7,1.9,0,2.7l-1.9,1.9c-0.7,0.7-1.9,0.7-2.7,0
			l-1.9-1.9c-0.7-0.7-0.7-1.9,0-2.7L355.6,445.4z"/>
		<path class="st24" d="M165.4,422.5v18.3l0,0c0,1.6,1.3,2.9,2.9,2.9l3.3,0c1.6,0,2.9,1.3,2.9,2.9l0,0l0,0c0,1.6-1.3,2.9-2.9,2.9
			h-11.6c-1.6,0-2.9,1.3-2.9,2.9l0,0l0,0c0,1.6,1.3,2.9,2.9,2.9h4.9c1.6,0,2.9,1.3,2.9,2.9l0,0v2.6v16.1l0,0c0,1.6,1.3,2.9,2.9,2.9
			H188"/>
		<path class="st10" d="M170.2,422.5c0-2.7-2.2-4.8-4.8-4.8c-2.7,0-4.8,2.2-4.8,4.8c0,2.7,2.1,4.8,4.8,4.8
			C168,427.3,170.2,425.1,170.2,422.5z M168,422.5c0,1.5-1.2,2.7-2.7,2.7c-1.5,0-2.7-1.2-2.7-2.7c0-1.5,1.2-2.7,2.7-2.7
			C166.8,419.8,168,421,168,422.5z"/>
		<path class="st12" d="M173,446.5c0-0.9-0.7-1.6-1.6-1.6c-0.9,0-1.6,0.7-1.6,1.6c0,0.9,0.7,1.6,1.6,1.6
			C172.3,448.1,173,447.4,173,446.5z"/>
		<path class="st12" d="M161.5,452.4c0-0.9-0.7-1.6-1.6-1.6c-0.9,0-1.6,0.7-1.6,1.6c0,0.9,0.7,1.6,1.6,1.6
			C160.8,453.9,161.5,453.2,161.5,452.4z"/>
		<path class="st12" d="M166.9,422.5c0-0.9-0.7-1.6-1.6-1.6c-0.9,0-1.6,0.7-1.6,1.6c0,0.9,0.7,1.6,1.6,1.6
			C166.2,424,166.9,423.3,166.9,422.5z"/>
		<path class="st12" d="M172.5,476.6c0-0.9-0.7-1.6-1.6-1.6c-0.9,0-1.6,0.7-1.6,1.6c0,0.9,0.7,1.6,1.6,1.6
			C171.8,478.1,172.5,477.4,172.5,476.6z"/>
		<path class="st12" d="M169.8,440.8c0-0.9-0.7-1.6-1.6-1.6c-0.9,0-1.6,0.7-1.6,1.6c0,0.9,0.7,1.6,1.6,1.6
			C169.1,442.4,169.8,441.7,169.8,440.8z"/>
		<path class="st13" d="M191.4,481.4l0-3.5c0-1.4-1.1-2.5-2.5-2.5l-3.5,0c-1.4,0-2.5,1.1-2.5,2.5l0,3.5c0,1.4,1.1,2.5,2.5,2.5l3.5,0
			C190.3,483.9,191.4,482.8,191.4,481.4z M186.2,482c-0.8,0-1.4-0.6-1.4-1.4v-1.9c0-0.8,0.6-1.4,1.4-1.4l1.9,0
			c0.8,0,1.4,0.6,1.4,1.4v1.9c0,0.8-0.6,1.4-1.4,1.4L186.2,482z"/>
	</g>
	<line class="st10" x1="436.1" y1="396.6" x2="449.1" y2="396.6"/>
	<path class="st12" d="M436.1,395c-0.9,0-1.7,0.7-1.7,1.6c0,0.9,0.7,1.6,1.7,1.6c0.9,0,1.6-0.7,1.6-1.6
		C437.7,395.7,437,395,436.1,395z"/>
	<path class="st12" d="M448.3,393.2L448.3,393.2l2.2,1.3l2.2,1.3h0v0c0.3,0.2,0.5,0.5,0.5,0.9c0,0.4-0.2,0.7-0.5,0.9v0l-2.2,1.3
		l-2.2,1.3c-0.2,0.1-0.3,0.1-0.5,0.1c-0.6,0-1-0.5-1-1v-2.6v-2.6c0-0.6,0.5-1,1-1C447.9,393,448.1,393.1,448.3,393.2L448.3,393.2z"
		/>
</g>
</svg>
