<?xml version="1.0" encoding="utf-8"?>
<!-- Generator: Adobe Illustrator 22.0.1, SVG Export Plug-In . SVG Version: 6.00 Build 0)  -->
<svg version="1.1" id="Layer_1" xmlns="http://www.w3.org/2000/svg" xmlns:xlink="http://www.w3.org/1999/xlink" x="0px" y="0px"
	 viewBox="0 0 171.8 89.9" style="enable-background:new 0 0 171.8 89.9;" xml:space="preserve">
<style type="text/css">
	.st0{fill:#036635;}
	.st1{fill:#58A618;}
</style>
<g>
	<g>
		<g>
			<path class="st0" d="M103.9,20.8c-0.3-0.4-1.3-1.8-3.4-1.8c-2.5,0-4.3,2-4.3,4.3c0,2.5,1.9,4.4,4.3,4.4c1.2,0,2.6-0.6,3.4-1.9
				h1.2c-0.9,1.8-2.6,2.8-4.6,2.8c-3,0-5.3-2.2-5.3-5.3c0-3,2.3-5.2,5.3-5.2c2.1,0,3.8,1,4.7,2.8H103.9z"/>
			<path class="st0" d="M117.1,23.2c0,3-2.4,5.3-5.4,5.3c-3,0-5.4-2.2-5.4-5.2c0-3,2.4-5.3,5.4-5.3
				C114.8,18.1,117.1,20.2,117.1,23.2z M116.1,23.2c0-2.5-1.9-4.3-4.3-4.3c-2.5,0-4.4,1.8-4.4,4.4c0,2.5,1.9,4.3,4.4,4.3
				C114.3,27.6,116.1,25.8,116.1,23.2z"/>
			<path class="st0" d="M118.9,18.2h1.6l3.7,8.6l3.7-8.6h1.6v10.1h-1v-9l-3.8,9h-0.8l-3.8-9v9h-1V18.2z"/>
			<path class="st0" d="M131.6,18.2h3.2c3,0,3.5,1.9,3.5,3c0,1.5-0.9,3-3.5,3h-2.2v4.1h-1V18.2z M132.6,23.4h2.2
				c1.8,0,2.5-1.1,2.5-2.1c0-1.1-0.7-2.1-2.5-2.1h-2.2V23.4z"/>
			<path class="st0" d="M142.1,18.2h1.1l4.3,10.1h-1.1L145,25h-4.7l-1.5,3.4h-1.1L142.1,18.2z M144.6,24l-1.9-4.6l-2,4.6H144.6z"/>
			<path class="st0" d="M148.8,18.2h1.4l5.7,8.4v-8.4h1v10.1h-1l-6.1-8.9v8.9h-1V18.2z"/>
			<path class="st0" d="M161.6,25l-3.5-6.7h1.1l2.9,5.7l2.9-5.7h1.1l-3.5,6.7v3.4h-1V25z"/>
			<path class="st0" d="M105.9,37.7c-0.3,2.9-2.4,4.8-5.3,4.8c-3.5,0-5.5-2.6-5.5-5.3c0-2.8,2.1-5.2,5.5-5.2c2.1,0,3.9,1,4.7,2.9
				h-1.2c-1-1.8-2.9-1.9-3.5-1.9c-3.2,0-4.5,2.5-4.5,4.3c0,2.1,1.7,4.4,4.5,4.4c1.7,0,3.5-1,4.1-3h-5.7v-0.9H105.9z"/>
			<path class="st0" d="M107.7,32.2h2.8c3.8,0,4,2.5,4,3.3c0,1.6-1.2,2.9-3,3l2.8,3.8h-1.3l-3.4-4.6h0.8c0.6,0,3,0,3-2.3
				c0-1.1-0.6-2.3-3-2.3h-1.8v9.2h-1V32.2z"/>
			<path class="st0" d="M126.4,37.2c0,3-2.4,5.3-5.4,5.3c-3,0-5.4-2.2-5.4-5.2c0-3,2.4-5.3,5.4-5.3C124.1,32,126.4,34.2,126.4,37.2z
				 M125.4,37.2c0-2.5-1.9-4.3-4.3-4.3c-2.5,0-4.4,1.8-4.4,4.4c0,2.5,1.9,4.3,4.4,4.3C123.5,41.6,125.4,39.7,125.4,37.2z"/>
			<path class="st0" d="M129.1,32.2v6.2c0,0.7,0,3.2,2.5,3.2c2.5,0,2.5-2.5,2.5-3.2v-6.2h1v6.2c0,3-1.5,4.1-3.5,4.1
				c-2,0-3.5-1.2-3.5-4.1v-6.2H129.1z"/>
			<path class="st0" d="M137.2,32.2h3.2c3,0,3.5,1.9,3.5,3c0,1.5-0.9,3-3.5,3h-2.2v4.1h-1V32.2z M138.2,37.3h2.2
				c1.8,0,2.5-1.1,2.5-2.1c0-1.1-0.7-2.1-2.5-2.1h-2.2V37.3z"/>
		</g>
		<g>
			<path class="st1" d="M32.8,10.2H1.5v18.1c0,8,6.5,14.5,14.5,14.5h31.3V24.7C47.3,16.7,40.8,10.2,32.8,10.2z"/>
			<path class="st1" d="M50.7,29.1v13.7h23.7c6.1,0,11-4.9,11-11V18.1H61.7C55.7,18.1,50.7,23,50.7,29.1z"/>
			<path class="st1" d="M50.7,6.5v8.1h14.1c3.6,0,6.5-2.9,6.5-6.5V0H57.3C53.7,0,50.7,2.9,50.7,6.5z"/>
		</g>
	</g>
	<g>
		<path class="st0" d="M171.8,43.6c0,1.9-1.5,3.3-3.3,3.3c-1.9,0-3.4-1.5-3.4-3.3c0-1.8,1.5-3.3,3.4-3.3
			C170.4,40.4,171.8,41.8,171.8,43.6z M165.9,43.6c0,1.5,1.1,2.6,2.5,2.6c1.4,0,2.5-1.2,2.5-2.6c0-1.5-1.1-2.6-2.5-2.6
			C167,41,165.9,42.2,165.9,43.6z M168,45.4h-0.8v-3.3c0.3-0.1,0.7-0.1,1.3-0.1c0.6,0,0.9,0.1,1.1,0.2c0.2,0.1,0.3,0.4,0.3,0.7
			c0,0.4-0.3,0.6-0.7,0.8v0c0.3,0.1,0.5,0.4,0.6,0.8c0.1,0.5,0.2,0.7,0.2,0.8h-0.8c-0.1-0.1-0.2-0.4-0.3-0.8
			c-0.1-0.4-0.3-0.5-0.7-0.5H168V45.4z M168,43.5h0.4c0.4,0,0.8-0.1,0.8-0.5c0-0.3-0.2-0.5-0.7-0.5c-0.2,0-0.3,0-0.4,0V43.5z"/>
	</g>
	<g>
		<path class="st0" d="M78.7,89.9c-7.5,0-13.5-6.1-13.5-13.5V63.5c0-7.5,6.1-13.5,13.5-13.5h19v13.5C97.6,71,91.6,77,84.1,77H72.5
			c0.3,3.1,3,5.6,6.2,5.6h19v7.3H78.7z M84.1,69.8c3.4,0,6.2-2.8,6.2-6.2v-6.2H78.7c-3.4,0-6.2,2.8-6.2,6.2v6.2H84.1z"/>
		<path class="st0" d="M54.9,89.9v-6.6c0-3.4-2.8-6.2-6.2-6.2H37v12.9h-7.3V63.5c0-7.5,6.1-13.5,13.5-13.5h19v13.5
			c0,3.8-1.6,7.3-4.3,9.9c2.7,2.6,4.3,6.1,4.3,9.9v6.6H54.9z M48.6,69.8c3.4,0,6.2-2.8,6.2-6.2v-6.2H43.2c-3.4,0-6.2,2.8-6.2,6.2
			v6.2H48.6z"/>
		<path class="st0" d="M164.3,89.9V77h-17.9v12.9h-7.3V63.5c0-7.5,6.1-13.5,13.5-13.5h19v39.9H164.3z M164.3,69.8V57.3h-11.7
			c-3.4,0-6.2,2.8-6.2,6.2v6.2H164.3z"/>
		<path class="st0" d="M114.7,89.9l0-0.6V63.5l0-0.1c-0.1-3.4-2.9-6.1-6.2-6.1h-7.8V50h7.8c3.8,0,7.3,1.6,9.9,4.3
			c2.6-2.7,6.1-4.3,9.9-4.3h7.8v7.3h-7.8c-3.4,0-6.2,2.7-6.2,6.1l0,0.1v26.4H114.7z"/>
		<path class="st0" d="M0,89.9V63.5C0,56.1,6.1,50,13.5,50h13.2v7.3H13.5c-3.4,0-6.2,2.8-6.2,6.2v6.2h12.3V77H7.3v12.9H0z"/>
	</g>
</g>
</svg>
