<?xml version="1.0" encoding="utf-8"?>
<!-- Generator: Adobe Illustrator 22.0.1, SVG Export Plug-In . SVG Version: 6.00 Build 0)  -->
<svg version="1.1" id="Layer_3" xmlns="http://www.w3.org/2000/svg" xmlns:xlink="http://www.w3.org/1999/xlink" x="0px" y="0px"
	 viewBox="0 0 15.2 15.2" style="enable-background:new 0 0 15.2 15.2;" xml:space="preserve">
<style type="text/css">
	.st0{fill:#E77C13;}
	.st1{fill:none;stroke:#E77C13;stroke-width:1.5;}
</style>
<g>
	<path class="st0" d="M11.5,6c0.9,0.9,0.9,2.3,0,3.2l-2.3,2.3c-0.9,0.9-2.3,0.9-3.2,0L3.7,9.2C2.8,8.3,2.8,6.9,3.7,6L6,3.7
		c0.9-0.9,2.3-0.9,3.2,0L11.5,6z"/>
	<path class="st1" d="M13.4,5.2c1.3,1.3,1.3,3.5,0,4.8L10,13.4c-1.3,1.3-3.5,1.3-4.8,0L1.7,10c-1.3-1.3-1.3-3.5,0-4.8l3.4-3.4
		c1.3-1.3,3.5-1.3,4.8,0L13.4,5.2z"/>
</g>
</svg>
