<?xml version="1.0" encoding="utf-8"?>
<!-- Generator: Adobe Illustrator 22.0.1, SVG Export Plug-In . SVG Version: 6.00 Build 0)  -->
<svg version="1.1" id="Layer_3" xmlns="http://www.w3.org/2000/svg" xmlns:xlink="http://www.w3.org/1999/xlink" x="0px" y="0px"
	 viewBox="0 0 14.1 14.1" style="enable-background:new 0 0 14.1 14.1;" xml:space="preserve">
<style type="text/css">
	.st0{fill:#E77C13;}
</style>
<path class="st0" d="M0,4.1L0,10c0,2.3,1.8,4.1,4.1,4.1l5.8,0c2.3,0,4.1-1.9,4.1-4.1l0-5.8C14.1,1.8,12.2,0,10,0L4.1,0
	C1.8,0,0,1.8,0,4.1z M8.6,3.2c1.3,0,2.3,1,2.3,2.3v3.2c0,1.3-1,2.3-2.3,2.3l-3.2,0c-1.3,0-2.3-1-2.3-2.3V5.4c0-1.3,1-2.3,2.3-2.3
	L8.6,3.2z"/>
</svg>
