<?xml version="1.0" encoding="utf-8"?>
<!-- Generator: Adobe Illustrator 22.0.1, SVG Export Plug-In . SVG Version: 6.00 Build 0)  -->
<svg version="1.1" id="Layer_3" xmlns="http://www.w3.org/2000/svg" xmlns:xlink="http://www.w3.org/1999/xlink" x="0px" y="0px"
	 viewBox="0 0 14.4 14.4" style="enable-background:new 0 0 14.4 14.4;" xml:space="preserve">
<style type="text/css">
	.st0{fill:none;stroke:#E77C13;stroke-width:1.5;}
	.st1{fill:none;stroke:#E77C13;}
	.st2{fill:#E77C13;}
</style>
<g>
	<path class="st0" d="M13.7,7.2c0-3.6-2.9-6.5-6.5-6.5c-3.6,0-6.5,2.9-6.5,6.5c0,3.6,2.9,6.5,6.5,6.5C10.8,13.7,13.7,10.8,13.7,7.2z
		"/>
	<path class="st1" d="M10.8,7.2c0,2-1.6,3.6-3.6,3.6c-2,0-3.6-1.6-3.6-3.6c0-2,1.6-3.6,3.6-3.6C9.2,3.6,10.8,5.2,10.8,7.2z"/>
	<path class="st2" d="M9.3,7.2c0-1.2-0.9-2.1-2.1-2.1c-1.2,0-2.1,0.9-2.1,2.1c0,1.2,0.9,2.1,2.1,2.1C8.4,9.3,9.3,8.4,9.3,7.2z"/>
</g>
</svg>
